<svg width="54" height="60" viewBox="0 0 54 60" fill="none" xmlns="http://www.w3.org/2000/svg">
<path d="M26.232 0.779221H26.8747C28.2633 0.969094 29.5954 1.72612 30.3093 2.964C30.9938 4.07858 30.9766 5.46688 30.6528 6.69735C35.2871 9.42463 39.963 12.0829 44.5973 14.8101C45.5541 13.7498 46.9475 13.0544 48.395 13.2246C50.6667 13.338 52.5999 15.503 52.3865 17.7988C52.3276 19.8825 50.6152 21.6234 48.6035 21.9365C48.6084 27.3023 48.601 32.6656 48.6059 38.0289C50.7158 38.3421 52.4748 40.2729 52.3914 42.4478C52.4331 44.7189 50.4312 46.768 48.1693 46.7582C46.8052 46.8396 45.532 46.1491 44.6194 45.1726C39.963 47.8826 35.3018 50.5803 30.6528 53.3002C30.9521 54.469 30.9766 55.7636 30.3927 56.8511C29.6813 58.2517 28.1971 59.1172 26.6539 59.2208H26.4258C25.1059 59.0827 23.7615 58.5205 22.9936 57.3837C22.1325 56.205 21.9583 54.6318 22.4294 53.2607C17.8049 50.563 13.1633 47.8974 8.54623 45.1923C7.7759 45.9543 6.83139 46.6102 5.72495 46.7138C4.19901 46.9554 2.58229 46.2897 1.66231 45.0469C0.506813 43.5649 0.477373 41.3135 1.6206 39.8167C2.2879 38.8451 3.38206 38.3002 4.50567 38.0585C4.50322 32.673 4.50812 27.2875 4.50322 21.8996C3.68137 21.7146 2.8497 21.436 2.23393 20.8294C0.28847 19.2093 0.322816 15.9001 2.24865 14.2775C4.02728 12.6303 7.0252 12.9656 8.56341 14.7879C13.1805 12.0952 17.8123 9.42709 22.4343 6.73927C21.9682 5.36331 22.1227 3.78021 22.9985 2.59905C23.7296 1.52145 24.9808 0.959231 26.232 0.779221ZM25.7119 2.38945C24.5098 2.747 23.5775 3.95282 23.6536 5.23262C23.6389 6.92915 25.3807 8.40621 27.0465 8.01907C28.6166 7.77002 29.7549 6.04389 29.3256 4.49532C28.9944 2.93441 27.2329 1.8938 25.7119 2.38945ZM29.9291 7.9377C29.2397 8.74651 28.2927 9.29147 27.255 9.50107C27.2501 12.5563 27.2476 15.6115 27.255 18.6692C30.1499 20.3608 33.057 22.0327 35.9421 23.7391C38.6186 22.2004 41.278 20.6321 43.9545 19.0934C43.6233 18.1317 43.6012 17.0713 43.9349 16.1072C39.281 13.3602 34.5879 10.6798 29.9291 7.9377ZM9.23315 16.0702C9.53245 16.9702 9.52755 17.9295 9.32147 18.8468C11.9072 20.4003 14.4611 22.0155 17.0739 23.5221C20.0055 21.9563 22.8759 20.2696 25.7928 18.6692C25.7904 15.6165 25.7806 12.5637 25.7977 9.5134C24.7796 9.289 23.8474 8.7687 23.1654 7.96975C18.5311 10.6872 13.8699 13.3577 9.23315 16.0702ZM47.3204 14.7633C46.5133 14.9704 45.8264 15.5499 45.451 16.2921C44.6856 17.7939 45.5197 19.8356 47.1462 20.3041C48.8979 20.9798 51.0175 19.4337 50.8998 17.5448C50.9807 15.7348 49.0353 14.2602 47.3204 14.7633ZM3.89725 14.9531C2.92575 15.4217 2.22166 16.4697 2.26827 17.5695C2.20449 18.975 3.35999 20.2302 4.71911 20.4225C6.45849 20.7233 8.22731 19.1106 7.98934 17.3204C7.92064 15.3847 5.60229 14.0383 3.89725 14.9531ZM18.6366 24.5208C21.2739 26.1335 23.9308 27.7117 26.5607 29.3367C29.1146 27.7437 31.6979 26.1951 34.2591 24.6145C31.6905 22.9821 29.0901 21.399 26.5239 19.7616C23.9014 21.3571 21.2641 22.9303 18.6366 24.5208ZM5.8329 21.902C5.84271 27.2974 5.81327 32.6903 5.84516 38.0856C6.80685 38.2607 7.68758 38.749 8.35978 39.4592C10.9431 37.95 13.5411 36.4631 16.1269 34.9564C16.1465 31.5436 16.1293 28.1333 16.1367 24.7205C13.6442 23.2065 11.1565 21.685 8.65418 20.1932C7.92555 21.0562 6.94424 21.685 5.8329 21.902ZM36.6977 25.009C36.7001 28.3035 36.7001 31.5979 36.6977 34.8923C39.3644 36.4532 42.0385 38.0043 44.7199 39.5381C45.4118 38.7909 46.3121 38.2706 47.3106 38.0659C47.3057 32.6755 47.3082 27.2826 47.3106 21.8897C46.2827 21.6949 45.3823 21.1228 44.6562 20.383C42.014 21.9439 39.3595 23.4851 36.6977 25.009ZM17.5105 25.5343C17.5204 28.5476 17.5032 31.5609 17.5179 34.5767C17.5032 34.9564 17.7853 35.2696 18.1018 35.4373C20.6875 36.9538 23.266 38.4876 25.8493 40.009C25.8272 36.833 25.8689 33.6569 25.8296 30.4808C23.0378 28.8608 20.2877 27.1741 17.5105 25.5343ZM27.2329 30.5376C27.2574 33.7013 27.2354 36.865 27.2452 40.0288C29.9364 38.4136 32.6473 36.833 35.3435 35.2252C35.3361 32.0344 35.3459 28.8435 35.3386 25.6526C32.6424 27.29 29.9266 28.8953 27.2329 30.5376ZM9.15219 40.7044C9.54472 41.7327 9.59624 42.8793 9.21843 43.9199C13.8601 46.6373 18.5262 49.3079 23.1629 52.0302C23.8449 51.2313 24.7821 50.7209 25.7953 50.494C25.783 47.5053 25.7855 44.5167 25.7953 41.528C22.7974 39.7674 19.7847 38.0314 16.7819 36.2782C14.2403 37.7552 11.6987 39.2323 9.15219 40.7044ZM27.255 41.565C27.2476 44.5438 27.2501 47.5201 27.255 50.4989C28.2903 50.7135 29.2397 51.2486 29.9291 52.0623C34.5903 49.3227 39.2786 46.6324 43.9423 43.8953C43.5963 42.8966 43.6258 41.8042 43.9692 40.808C41.381 39.3309 38.8075 37.8218 36.2242 36.3324C33.2312 38.0709 30.2505 39.829 27.255 41.565ZM4.35847 39.612C3.23487 39.9351 2.30507 40.9929 2.27563 42.1889C2.12108 43.5747 3.16618 44.9507 4.51548 45.2145C6.28921 45.7003 8.20277 44.0383 7.98443 42.2037C7.95008 40.4381 6.02425 39.0917 4.35847 39.612ZM47.0751 39.6737C46.1919 39.9967 45.4535 40.771 45.2499 41.7031C44.823 43.2172 45.8877 44.9482 47.4357 45.2096C49.207 45.7003 51.1132 44.026 50.8949 42.1988C50.8679 40.3567 48.763 39.0153 47.0751 39.6737ZM25.6309 52.0944C24.5147 52.4593 23.6315 53.5813 23.656 54.7822C23.5579 56.3653 25.025 57.8078 26.5902 57.7215C28.2854 57.7437 29.7549 55.9683 29.3501 54.2964C29.0925 52.6344 27.2035 51.5247 25.6309 52.0944Z" fill="#0883E0"/>
<path fill-rule="evenodd" clip-rule="evenodd" d="M26.1762 0H26.9278L26.9803 0.00718443C28.5581 0.222931 30.122 1.08706 30.979 2.56546C31.6951 3.73811 31.7553 5.10537 31.5361 6.31267C33.689 7.57674 35.8508 8.82725 38.0152 10.0792L38.0164 10.0799C40.1699 11.3256 42.3259 12.5728 44.4742 13.8339C45.5258 12.8904 46.9438 12.2783 48.46 12.4477C51.1443 12.5973 53.4031 15.1165 53.1646 17.8458C53.0892 20.0948 51.4276 21.9541 49.3832 22.5581C49.3851 25.034 49.3845 27.5092 49.3839 29.9838C49.3834 32.4578 49.3828 34.931 49.3847 37.4042C51.543 38.0353 53.2502 40.0957 53.1708 42.4556C53.2072 45.141 50.8777 47.5344 48.1908 47.5374C46.7702 47.6143 45.4801 47.006 44.5011 46.1429C43.0813 46.969 41.6615 47.7937 40.2421 48.6182C37.337 50.3058 34.4332 51.9926 31.5333 53.6879C31.733 54.8224 31.685 56.0861 31.0835 57.2118C30.2307 58.883 28.4846 59.8789 26.7061 59.9983L26.6801 60H26.3851L26.3447 59.9958C24.8923 59.8438 23.2981 59.2165 22.356 57.8318C21.4691 56.6103 21.211 55.0583 21.5187 53.6318C19.6653 52.5518 17.8056 51.4743 15.9451 50.3964C13.511 48.9862 11.0755 47.5751 8.65083 46.1565C7.89502 46.8073 6.94869 47.3748 5.82246 47.4872C4.01835 47.7633 2.1296 46.9815 1.0418 45.5183C-0.318004 43.7667 -0.358301 41.1395 0.989492 39.3593C1.67283 38.374 2.69044 37.7817 3.72621 37.4583C3.72545 35.3495 3.72572 33.2414 3.726 31.1333C3.72637 28.2573 3.72675 25.3815 3.72451 22.504C3.03468 22.3012 2.3057 21.9833 1.71066 21.4075C-0.587487 19.4661 -0.532577 15.6174 1.73259 13.6934C3.69915 11.8863 6.81526 12.108 8.69705 13.8081C11.1372 12.3862 13.5837 10.9694 16.0294 9.55294C17.8626 8.49126 19.6953 7.42984 21.5246 6.3668C21.2179 4.94139 21.4569 3.37871 22.363 2.148C23.2594 0.837273 24.7431 0.206179 26.121 0.0079416L26.1762 0ZM22.9985 2.59905C22.1227 3.78021 21.9682 5.36331 22.4343 6.73927C20.4299 7.90487 18.4237 9.06676 16.4176 10.2286C13.7978 11.7458 11.1782 13.2629 8.56341 14.7879C7.0252 12.9656 4.02728 12.6303 2.24865 14.2775C0.322816 15.9001 0.28847 19.2093 2.23393 20.8294C2.8497 21.436 3.68137 21.7146 4.50322 21.8996C4.50602 24.9784 4.50562 28.0565 4.50522 31.1343C4.50492 33.4425 4.50462 35.7505 4.50567 38.0585C3.38206 38.3002 2.2879 38.8451 1.6206 39.8167C0.477373 41.3135 0.506813 43.5649 1.66231 45.0469C2.58229 46.2897 4.19901 46.9554 5.72495 46.7138C6.83139 46.6102 7.7759 45.9543 8.54623 45.1923C11.1361 46.7097 13.7336 48.2146 16.3316 49.7198C18.3651 50.8979 20.3989 52.0762 22.4294 53.2607C21.9583 54.6318 22.1325 56.205 22.9936 57.3837C23.7615 58.5205 25.1059 59.0827 26.4258 59.2208H26.6539C28.1971 59.1172 29.6813 58.2517 30.3927 56.8511C30.9766 55.7636 30.9521 54.469 30.6528 53.3002C33.7158 51.5082 36.7841 49.7258 39.8528 47.9433C41.4417 47.0202 43.0308 46.0971 44.6194 45.1726C45.532 46.1491 46.8052 46.8396 48.1693 46.7582C50.4312 46.768 52.4331 44.7189 52.3914 42.4478C52.4748 40.2729 50.7158 38.3421 48.6059 38.0289C48.6035 35.3477 48.6041 32.6666 48.6047 29.9851C48.6053 27.3026 48.6059 24.6199 48.6035 21.9365C50.6152 21.6234 52.3276 19.8825 52.3865 17.7988C52.5999 15.503 50.6667 13.338 48.395 13.2246C46.9475 13.0544 45.5541 13.7498 44.5973 14.8101C42.2802 13.4465 39.9526 12.1001 37.6251 10.7538C35.2975 9.40739 32.9699 8.061 30.6528 6.69735C30.9766 5.46688 30.9938 4.07858 30.3093 2.964C29.5954 1.72612 28.2633 0.969094 26.8747 0.779221H26.232C24.9808 0.959231 23.7296 1.52145 22.9985 2.59905ZM4.51548 45.2145C6.28921 45.7003 8.20277 44.0383 7.98443 42.2037C7.95008 40.4381 6.02425 39.0917 4.35847 39.612C3.23487 39.9351 2.30507 40.9929 2.27563 42.1889C2.12108 43.5747 3.16618 44.9507 4.51548 45.2145ZM25.6309 52.0944C24.5147 52.4593 23.6315 53.5813 23.656 54.7822C23.5579 56.3653 25.025 57.8078 26.5902 57.7215C28.2854 57.7437 29.7549 55.9683 29.3501 54.2964C29.0925 52.6344 27.2035 51.5247 25.6309 52.0944ZM7.98934 17.3204C7.92064 15.3847 5.60229 14.0383 3.89725 14.9531C2.92575 15.4217 2.22166 16.4697 2.26827 17.5695C2.20449 18.975 3.35999 20.2302 4.71911 20.4225C6.45849 20.7233 8.22731 19.1106 7.98934 17.3204ZM17.5179 34.5767C17.5032 34.9564 17.7853 35.2696 18.1018 35.4373C19.6188 36.327 21.1333 37.2226 22.6477 38.1183C23.4541 38.5952 24.2605 39.0721 25.0673 39.548C25.3279 39.7018 25.5885 39.8555 25.8493 40.009C25.8472 39.7066 25.8456 39.4042 25.8446 39.1018C25.8407 38.0046 25.8428 36.9074 25.8448 35.8102C25.8482 34.0338 25.8516 32.2573 25.8296 30.4808C24.1759 29.5212 22.5369 28.5382 20.8982 27.5554C20.0297 27.0346 19.1614 26.5139 18.2911 25.9967C18.0311 25.8422 17.7709 25.688 17.5105 25.5343C17.5115 25.8365 17.5122 26.1387 17.5127 26.4409C17.5145 27.5197 17.5136 28.5986 17.5127 29.6776C17.5113 31.3102 17.5099 32.9431 17.5179 34.5767ZM18.2926 26.9043C18.2935 27.8334 18.2927 28.7591 18.2919 29.684C18.2905 31.3109 18.2891 32.9356 18.2971 34.5729L18.2972 34.5899L18.2969 34.5984C18.299 34.6031 18.3035 34.6115 18.3127 34.6239C18.3412 34.6626 18.395 34.7108 18.4666 34.7487L18.4815 34.7566L18.496 34.7651C20.0132 35.6549 21.5305 36.5523 23.0464 37.4488C23.7193 37.8467 24.3919 38.2445 25.064 38.6413C25.062 37.6883 25.0638 36.7411 25.0656 35.7958C25.0688 34.1758 25.0719 32.5612 25.0554 30.9319C23.5284 30.0414 22.0054 29.1281 20.4876 28.2179C19.7547 27.7783 19.023 27.3395 18.2926 26.9043ZM18.2952 34.594L18.2959 34.596L18.2952 34.594ZM47.1462 20.3041C48.8979 20.9798 51.0175 19.4337 50.8998 17.5448C50.9807 15.7348 49.0353 14.2602 47.3204 14.7633C46.5133 14.9704 45.8264 15.5499 45.451 16.2921C44.6856 17.7939 45.5197 19.8356 47.1462 20.3041ZM45.2499 41.7031C44.823 43.2172 45.8877 44.9482 47.4357 45.2096C49.207 45.7003 51.1132 44.026 50.8949 42.1988C50.8679 40.3567 48.763 39.0153 47.0751 39.6737C46.1919 39.9967 45.4535 40.771 45.2499 41.7031ZM29.3256 4.49532C28.9944 2.93441 27.2329 1.8938 25.7119 2.38945C24.5098 2.747 23.5775 3.95282 23.6536 5.23262C23.6389 6.92915 25.3807 8.40621 27.0465 8.01907C28.6166 7.77002 29.7549 6.04389 29.3256 4.49532ZM25.9437 3.13345L25.934 3.13633C25.0466 3.40028 24.3788 4.30051 24.4314 5.18639L24.433 5.21286L24.4328 5.23938C24.4277 5.81708 24.7258 6.39937 25.2176 6.80772C25.7082 7.2151 26.3169 7.38865 26.8701 7.26008L26.897 7.25381L26.9244 7.24947C28.0436 7.07194 28.8774 5.7955 28.5747 4.70349L28.5683 4.68045L28.5633 4.65705C28.3262 3.5395 27.025 2.78111 25.9533 3.13032L25.9437 3.13345ZM47.527 15.5147L47.5141 15.518C46.9384 15.6658 46.4271 16.0888 46.1464 16.6438L46.1453 16.646C45.592 17.7315 46.2273 19.2285 47.3619 19.5554L47.3948 19.5648L47.4267 19.5771C48.007 19.801 48.6984 19.6718 49.2633 19.2577C49.8277 18.844 50.1613 18.2223 50.1221 17.5933L50.1195 17.5516L50.1213 17.51C50.1485 16.9036 49.8357 16.3105 49.308 15.9039C48.7789 15.4964 48.1176 15.3415 47.5398 15.511L47.527 15.5147ZM4.25087 15.6477L4.23574 15.655C3.5131 16.0035 3.01477 16.7809 3.04679 17.5365L3.04824 17.5706L3.04669 17.6048C3.00287 18.5704 3.82733 19.5093 4.82829 19.651L4.84013 19.6526L4.85191 19.6547C5.44327 19.7569 6.08187 19.5371 6.56335 19.0866C7.04285 18.638 7.29712 18.0265 7.21691 17.4231L7.21194 17.3857L7.21061 17.348C7.18751 16.6971 6.78147 16.0984 6.16632 15.7421C5.55133 15.3858 4.83553 15.334 4.26567 15.6398L4.25087 15.6477ZM4.58231 40.3585L4.57377 40.3609C3.73372 40.6024 3.07462 41.3956 3.05462 42.2081L3.05379 42.2418L3.05005 42.2753C2.94167 43.2471 3.70288 44.2617 4.66502 44.4498L4.69341 44.4553L4.72131 44.463C5.3104 44.6243 5.97041 44.4386 6.48615 43.9908C7.00178 43.5432 7.28385 42.9107 7.21067 42.2958L7.20611 42.2574L7.20536 42.2188C7.19379 41.6244 6.86085 41.0611 6.33242 40.6862C5.80287 40.3106 5.15454 40.1797 4.59079 40.3558L4.58231 40.3585ZM47.3506 40.4026L47.3428 40.4055C46.6838 40.6465 46.1521 41.224 46.0111 41.8694L46.0062 41.8922L45.9998 41.9146C45.695 42.9959 46.488 44.2593 47.5655 44.4413L47.6051 44.4479L47.6438 44.4587C48.2288 44.6207 48.8847 44.4355 49.3989 43.9865C49.9134 43.5372 50.1943 42.903 50.1211 42.2912L50.1163 42.2508L50.1157 42.2102C50.1067 41.5961 49.7488 41.021 49.1819 40.6511C48.6132 40.2799 47.9277 40.1775 47.3583 40.3996L47.3506 40.4026ZM25.8847 52.8312L25.8731 52.835C25.0497 53.1042 24.4182 53.9418 24.4351 54.7663L24.4357 54.7984L24.4338 54.8304C24.365 55.9393 25.439 57.0046 26.5473 56.9435L26.5738 56.942L26.6004 56.9424C27.17 56.9498 27.7475 56.6513 28.1531 56.1526C28.5577 55.6551 28.7277 55.0372 28.5928 54.4798L28.5851 54.448L28.5801 54.4157C28.398 53.2407 27.0097 52.4237 25.8963 52.827L25.8847 52.8312ZM28.0333 10.101C28.0293 12.8077 28.0275 15.5137 28.0332 18.2213C28.9496 18.7561 29.8686 19.29 30.7884 19.8244C32.5094 20.8243 34.233 21.8257 35.9472 22.8371C37.1514 22.1431 38.3529 21.4435 39.5562 20.7429L39.5575 20.7421C40.7168 20.067 41.8778 19.391 43.0421 18.7196C42.8824 17.9863 42.8711 17.2192 43.0264 16.4761C40.754 15.1379 38.4936 13.8264 36.2304 12.5134C34.1803 11.3239 32.1279 10.1331 30.0624 8.91999C29.4775 9.45664 28.7835 9.85724 28.0333 10.101ZM29.9291 7.9377C29.2397 8.74651 28.2927 9.29147 27.255 9.50107C27.2501 12.5563 27.2476 15.6115 27.255 18.6692C28.3026 19.2814 29.3518 19.891 30.401 20.5006C32.2511 21.5754 34.1011 22.6502 35.9421 23.7391C37.2804 22.9698 38.6143 22.193 39.9483 21.4162C41.2823 20.6395 42.6162 19.8627 43.9545 19.0934C43.6233 18.1317 43.6012 17.0713 43.9349 16.1072C41.5021 14.6712 39.0585 13.2534 36.6147 11.8355C34.3837 10.5409 32.1525 9.24634 29.9291 7.9377ZM10.1841 18.4568C10.9692 18.9311 11.7475 19.4075 12.5236 19.8826C14.0421 20.8121 15.5523 21.7365 17.0884 22.6301C18.6547 21.7867 20.1897 20.9195 21.7329 20.0476C22.8177 19.4348 23.9066 18.8197 25.0132 18.2089C25.0127 17.7091 25.012 17.2092 25.0114 16.7092C25.0085 14.5087 25.0056 12.3058 25.0155 10.1043C24.2889 9.86077 23.6098 9.47584 23.0328 8.95054C20.7709 10.2746 18.4907 11.5955 16.2124 12.9152C14.1812 14.0919 12.1514 15.2677 10.1373 16.4443C10.2732 17.1174 10.2765 17.7987 10.1841 18.4568ZM23.1654 7.96975C23.8474 8.7687 24.7796 9.289 25.7977 9.5134C25.7843 11.9101 25.7874 14.3082 25.7906 16.7067C25.7914 17.3609 25.7923 18.0151 25.7928 18.6692C24.5674 19.3416 23.3502 20.0291 22.1332 20.7166C20.4533 21.6655 18.7739 22.6141 17.0739 23.5221C15.4007 22.5573 13.7517 21.548 12.103 20.5388C11.1771 19.9721 10.2514 19.4055 9.32147 18.8468C9.52755 17.9295 9.53245 16.9702 9.23315 16.0702C11.4273 14.7866 13.627 13.5124 15.8267 12.2382C18.2754 10.8197 20.7241 9.40123 23.1654 7.96975ZM26.5588 28.42C25.1766 27.5693 23.7813 26.7264 22.3892 25.8855C21.6373 25.4313 20.8862 24.9776 20.1387 24.5236C20.8932 24.0684 21.6494 23.6135 22.4062 23.1583C23.7769 22.3337 25.1491 21.5082 26.5144 20.6792C27.7086 21.4376 28.937 22.2026 30.1618 22.9654C31.0432 23.5143 31.9227 24.0621 32.7863 24.6054C32.0637 25.0484 31.3374 25.4912 30.6101 25.9346C29.2574 26.7592 27.9014 27.586 26.5588 28.42ZM33.5266 24.1507C33.771 24.3049 34.0152 24.4595 34.2591 24.6145C34.0132 24.7663 33.7671 24.9177 33.5209 25.0689C32.6846 25.5825 31.8465 26.0935 31.0083 26.6044C29.5226 27.5102 28.0367 28.416 26.5607 29.3367C25.0444 28.3997 23.519 27.4783 21.9937 26.557C21.124 26.0316 20.2543 25.5063 19.3862 24.978C19.1362 24.8259 18.8863 24.6735 18.6366 24.5208C18.8869 24.3692 19.1374 24.2179 19.3879 24.0666C20.2607 23.5395 21.1344 23.014 22.008 22.4884C23.5151 21.5818 25.0219 20.6754 26.5239 19.7616C27.8642 20.6168 29.2138 21.4572 30.5634 22.2975C31.5524 22.9133 32.5414 23.5291 33.5266 24.1507ZM6.62105 37.4765C6.60535 34.3904 6.6085 31.3085 6.61165 28.2236C6.6136 26.3183 6.61555 24.412 6.61306 22.5028C7.43747 22.2336 8.17622 21.7712 8.79176 21.183C10.5795 22.2525 12.3602 23.3358 14.1442 24.421C14.5481 24.6667 14.9523 24.9126 15.3567 25.1584C15.3547 26.3814 15.3556 27.6015 15.3565 28.8205C15.3579 30.7164 15.3592 32.6096 15.35 34.507C14.2794 35.1298 13.1999 35.7536 12.1192 36.3781C10.9001 37.0826 9.6796 37.7878 8.46909 38.4932C7.92697 38.038 7.29923 37.69 6.62105 37.4765ZM8.35978 39.4592C7.68758 38.749 6.80685 38.2607 5.84516 38.0856C5.82572 34.7958 5.82907 31.5069 5.83243 28.2178C5.83458 26.1127 5.83673 24.0075 5.8329 21.902C6.94424 21.685 7.92555 21.0562 8.65418 20.1932C10.6256 21.3685 12.588 22.5622 14.5508 23.7562C15.0793 24.0778 15.6079 24.3993 16.1367 24.7205C16.1338 26.0856 16.1347 27.4504 16.1357 28.815C16.1372 30.862 16.1387 32.9088 16.1269 34.9564C14.9212 35.6589 13.7129 36.3572 12.5047 37.0553C11.1216 37.8545 9.73859 38.6537 8.35978 39.4592ZM37.4772 34.4456C39.8459 35.8308 42.2199 37.2077 44.5995 38.5712C45.1631 38.0813 45.8178 37.7043 46.5309 37.4688C46.5268 32.4775 46.5289 27.4842 46.5311 22.4914C45.7864 22.2468 45.1222 21.8402 44.5504 21.3502C42.2007 22.7353 39.8418 24.1048 37.4772 25.4605C37.4793 28.4555 37.4793 31.4506 37.4772 34.4456ZM44.6562 20.383C45.3823 21.1228 46.2827 21.6949 47.3106 21.8897C47.3082 27.2826 47.3057 32.6755 47.3106 38.0659C46.3121 38.2706 45.4118 38.7909 44.7199 39.5381C42.0385 38.0043 39.3644 36.4532 36.6977 34.8923C36.7001 31.5979 36.7001 28.3035 36.6977 25.009C39.3595 23.4851 42.014 21.9439 44.6562 20.383ZM27.2452 40.0288C27.5043 39.8732 27.7637 39.718 28.0232 39.5631C29.2803 38.8124 30.541 38.068 31.8017 37.3235C32.9832 36.6258 34.1647 35.9281 35.3435 35.2252C35.3398 33.6298 35.3404 32.0344 35.341 30.4389C35.3415 29.1469 35.342 27.855 35.3402 26.563C35.3398 26.2595 35.3393 25.9561 35.3386 25.6526C35.0793 25.8101 34.8199 25.9672 34.5603 26.1241C33.562 26.7276 32.5616 27.3276 31.5611 27.9276C30.1163 28.794 28.6715 29.6605 27.2329 30.5376C27.2475 32.4161 27.2456 34.2945 27.2437 36.173C27.2428 37.1559 27.2418 38.1387 27.2432 39.1215C27.2436 39.4239 27.2442 39.7264 27.2452 40.0288ZM34.5616 27.0337C33.69 27.5595 32.8223 28.0799 31.9555 28.5997C30.643 29.3867 29.3328 30.1724 28.0152 30.9735C28.0264 32.707 28.0247 34.4455 28.023 36.1806C28.0222 37.007 28.0213 37.8326 28.0219 38.6565C29.1486 37.9853 30.2807 37.3168 31.4113 36.6491C32.4651 36.0268 33.5176 35.4053 34.5633 34.7829C34.5607 33.3369 34.5612 31.8911 34.5618 30.4464V30.4386C34.5622 29.3033 34.5627 28.1681 34.5616 27.0337ZM10.1344 43.553C12.1324 44.7208 14.1456 45.887 16.1601 47.054C18.4555 48.3836 20.7528 49.7144 23.0313 51.0497C23.6106 50.5251 24.2915 50.1456 25.0138 49.9037C25.0047 47.2598 25.0066 44.6163 25.0147 41.9734C23.3712 41.0097 21.7261 40.0544 20.0794 39.0981C18.9808 38.46 17.8813 37.8216 16.7811 37.1799C14.5501 38.4764 12.3183 39.7731 10.0827 41.0664C10.287 41.8722 10.3166 42.7256 10.1344 43.553ZM16.7819 36.2782C18.0094 36.9948 19.2385 37.7087 20.4676 38.4224C22.2453 39.4548 24.0229 40.4871 25.7953 41.528C25.7855 44.5167 25.783 47.5053 25.7953 50.494C24.7821 50.7209 23.8449 51.2313 23.1629 52.0302C20.7058 50.5876 18.2405 49.1595 15.7749 47.7313C13.5877 46.4644 11.4004 45.1973 9.21843 43.9199C9.59624 42.8793 9.54472 41.7327 9.15219 40.7044C11.6987 39.2323 14.2403 37.7552 16.7819 36.2782ZM28.0333 49.9006C28.7804 50.1442 29.4762 50.5405 30.0634 51.0798C32.2793 49.7797 34.523 48.4771 36.7649 47.1755C38.8637 45.9569 40.961 44.7393 43.0326 43.5254C42.8683 42.7479 42.8839 41.9473 43.0546 41.1826C41.638 40.3714 40.223 39.5502 38.8101 38.7303C37.9478 38.2298 37.0862 37.7298 36.2256 37.2329C34.9672 37.9648 33.7043 38.7036 32.4403 39.443C30.971 40.3026 29.5001 41.1631 28.0332 42.0145C28.0275 44.6434 28.0293 47.2708 28.0333 49.9006ZM36.2242 36.3324C37.2189 36.9059 38.2122 37.4823 39.2053 38.0587C40.7915 38.9792 42.3776 39.8997 43.9692 40.808C43.6258 41.8042 43.5963 42.8966 43.9423 43.8953C41.6823 45.2216 39.4166 46.537 37.151 47.8523C34.7412 49.2513 32.3316 50.6503 29.9291 52.0623C29.2397 51.2486 28.2903 50.7135 27.255 50.4989C27.2501 47.5201 27.2476 44.5438 27.255 41.565C28.854 40.6383 30.4488 39.7053 32.0436 38.7724C33.4363 37.9576 34.8289 37.1428 36.2242 36.3324Z" fill="#0883E0"/>
</svg>
