<svg width="54" height="43" viewBox="0 0 54 43" fill="none" xmlns="http://www.w3.org/2000/svg">
<path d="M43.5701 13.4197C42.8329 9.64438 40.775 6.23887 37.7505 3.78946C34.7261 1.34005 30.9244 0 27 0C23.0756 0 19.2739 1.34005 16.2495 3.78946C13.225 6.23887 11.1671 9.64438 10.4299 13.4197C7.3163 13.9625 4.52332 15.6283 2.6018 18.0886C0.680287 20.5489 -0.230281 23.625 0.0496683 26.7104C0.329618 29.7958 1.77976 32.6665 4.11413 34.7563C6.44849 36.8462 9.49762 38.0035 12.6602 38H13.5037V34.6953H12.6602C10.2521 34.7014 7.93595 33.7897 6.20199 32.1529C4.46802 30.5162 3.45225 28.2829 3.36961 25.9257C3.28698 23.5684 4.14396 21.2722 5.75922 19.5228C7.37449 17.7734 9.62129 16.7082 12.0242 16.5526L13.4346 16.4584L13.5864 15.082C13.9464 11.8439 15.5147 8.85003 17.9903 6.67503C20.4659 4.50004 23.6744 3.29711 27 3.29711C30.3256 3.29711 33.5341 4.50004 36.0097 6.67503C38.4853 8.85003 40.0536 11.8439 40.4136 15.082L40.5654 16.4584L41.9758 16.5542C44.3739 16.716 46.614 17.7837 48.2239 19.532C49.8337 21.2804 50.6874 23.5727 50.6049 25.9257C50.5224 28.2786 49.5102 30.5082 47.7817 32.1443C46.0532 33.7803 43.7435 34.695 41.3398 34.6953H40.4963V38H41.3398C44.5024 38.0035 47.5515 36.8462 49.8859 34.7563C52.2202 32.6665 53.6704 29.7958 53.9503 26.7104C54.2303 23.625 53.3197 20.5489 51.3982 18.0886C49.4767 15.6283 46.6837 13.9625 43.5701 13.4197Z" fill="#0883E0"/>
<path d="M39 33.1429V29.8571H35.3983C35.1772 28.8287 34.7511 27.8509 34.1434 26.9772L36.6977 24.5294L34.2737 22.2064L31.7194 24.6542C30.8078 24.0718 29.7874 23.6635 28.7143 23.4516V20H25.2857V23.4516C24.2126 23.6635 23.1922 24.0718 22.2806 24.6542L19.7263 22.2064L17.3023 24.5294L19.8566 26.9772C19.2489 27.8509 18.8228 28.8287 18.6017 29.8571H15V33.1429H18.6017C18.8228 34.1713 19.2489 35.1491 19.8566 36.0228L17.3023 38.4706L19.7263 40.7936L22.2806 38.3458C23.1922 38.9282 24.2126 39.3365 25.2857 39.5484V43H28.7143V39.5484C29.7874 39.3365 30.8078 38.9282 31.7194 38.3458L34.2737 40.7936L36.6977 38.4706L34.1434 36.0228C34.7511 35.1491 35.1772 34.1713 35.3983 33.1429H39ZM27 36.4286C25.9828 36.4286 24.9885 36.1395 24.1428 35.598C23.297 35.0564 22.6379 34.2867 22.2486 33.3861C21.8594 32.4855 21.7575 31.4945 21.956 30.5385C22.1544 29.5824 22.6442 28.7042 23.3635 28.015C24.0827 27.3257 24.9991 26.8563 25.9967 26.6661C26.9943 26.476 28.0284 26.5736 28.9681 26.9466C29.9078 27.3196 30.711 27.9513 31.2761 28.7618C31.8412 29.5723 32.1429 30.5252 32.1429 31.5C32.1415 32.8067 31.5992 34.0596 30.635 34.9836C29.6709 35.9076 28.3636 36.4273 27 36.4286Z" fill="#0883E0"/>
</svg>
