<svg width="49" height="54" viewBox="0 0 49 54" fill="none" xmlns="http://www.w3.org/2000/svg">
<path d="M48.1344 31.7905C48.1344 28.7108 46.642 25.9143 44.1625 24.2097C47.1917 20.5078 46.127 14.6935 42.0235 12.2745C42.9685 7.83579 38.8209 3.72428 34.3917 4.70222C33.4946 -0.28159 26.9532 -1.71945 24.0551 2.42138C21.1549 -1.72154 14.6143 -0.278659 13.7185 4.70222C9.28872 3.72428 5.14172 7.83642 6.08668 12.2746C1.9824 14.694 0.919236 20.5086 3.94759 24.2098C-1.75327 28.0307 -1.1696 36.9451 4.98751 39.9923C4.80388 42.1381 5.5026 44.3002 6.90643 45.9303C7.99482 47.198 9.4467 48.0953 11.0497 48.5027C12.8532 54.4221 20.8937 55.385 24.0552 50.1365C27.2188 55.3876 35.2588 54.419 37.0608 48.5028C40.7987 47.6167 43.5097 43.8255 43.1229 39.9924C46.1925 38.4249 48.1344 35.2884 48.1344 31.7905ZM12.4132 6.66428C13.0495 6.66428 13.6628 6.79839 14.2357 7.06295C14.56 7.21266 14.938 7.1868 15.2387 6.99437C15.5394 6.80195 15.7214 6.46944 15.7214 6.11244V5.72204C15.9221 0.887517 22.8091 0.891287 23.008 5.72204V9.49308H21.3879C20.1745 6.21451 15.3525 6.99971 15.2858 10.54C15.3529 14.0808 20.1751 14.865 21.3879 11.5869H23.008V17.0437H16.6245C16.1497 15.6407 14.6042 14.7021 13.089 15.0024L11.5174 12.2804C11.3304 11.9565 10.9847 11.757 10.6108 11.757H8.12024C7.64766 9.13556 9.74581 6.63863 12.4132 6.66428ZM19.4735 10.54C19.4735 11.1173 19.0038 11.5869 18.4265 11.5869C17.0377 11.5295 17.0381 9.55035 18.4265 9.49308C19.0038 9.49308 19.4735 9.96274 19.4735 10.54ZM13.663 17.0436C14.2403 17.0436 14.7099 17.5132 14.7099 18.0905C14.6524 19.4793 12.6735 19.4789 12.6161 18.0905C12.6161 17.5132 13.0858 17.0436 13.663 17.0436ZM17.9199 51.4939C15.501 51.4939 13.4026 49.7752 12.9305 47.4073C12.8451 46.979 12.5028 46.6487 12.0718 46.5785C9.07546 46.0996 6.92203 43.4446 7.05855 40.4097H14.0555L15.3256 42.6097C14.8557 43.1588 14.5714 43.8716 14.5714 44.6494C14.7438 48.8158 20.681 48.815 20.853 44.6494C20.8736 42.7103 19.0379 41.1896 17.1381 41.5612L15.5666 38.8393C15.3797 38.5154 15.034 38.3158 14.66 38.3158H6.33836C4.06171 37.3221 2.49906 35.2509 2.14551 32.8373H4.34281C5.5562 36.1159 10.3782 35.3307 10.445 31.7904C10.3778 28.2496 5.55557 27.4654 4.34281 30.7435H2.14509C2.47027 28.5098 3.82782 26.5699 5.86033 25.4957H12.491L13.7611 27.6958C11.8549 29.9287 13.8112 33.3515 16.7215 32.8236L18.2931 35.5456C18.48 35.8695 18.8257 36.069 19.1997 36.069H23.008V46.4058C23.008 49.2114 20.7255 51.4939 17.9199 51.4939ZM17.7121 43.6025C18.2895 43.6025 18.7592 44.0722 18.7592 44.6495C18.7017 46.0382 16.7226 46.0381 16.6653 44.6495C16.6653 44.0721 17.1348 43.6025 17.7121 43.6025ZM6.25733 31.7905C6.25733 31.2132 6.72698 30.7436 7.30426 30.7436C8.69312 30.8011 8.6927 32.7802 7.30426 32.8375C6.72698 32.8375 6.25733 32.3678 6.25733 31.7905ZM16.1475 30.7824C15.5702 30.7824 15.1007 30.3128 15.1007 29.7355C15.1581 28.3465 17.1373 28.3471 17.1945 29.7355C17.1945 30.3128 16.7248 30.7824 16.1475 30.7824ZM41.6378 38.3727C41.6216 38.3783 41.6056 38.3843 41.5896 38.3908C40.1663 38.9703 38.5626 39.0669 37.0788 38.6671C36.5199 38.5177 35.9461 38.849 35.7966 39.4075C35.6469 39.9659 35.9785 40.54 36.5369 40.6897C38.0052 41.0849 39.5815 41.1071 41.0565 40.7534C41.0166 43.6584 38.9318 46.0945 36.0658 46.5739C36.056 46.5753 36.0464 46.5767 36.0367 46.5782C35.2022 46.7151 34.337 46.672 33.5186 46.4529C32.9604 46.3034 32.3861 46.6348 32.2365 47.1933C32.0868 47.7518 32.4184 48.3259 32.9769 48.4755C33.5435 48.6273 34.1253 48.7168 34.7106 48.7428C32.2325 53.4175 25.1679 51.7432 25.1018 46.4057V31.4979C25.0465 30.1088 23.0628 30.1099 23.0079 31.4979V33.9752H19.804L18.5338 31.7752C20.4402 29.5422 18.4837 26.1194 15.5732 26.6473L14.0018 23.9253C13.8148 23.6014 13.4691 23.4019 13.0952 23.4019H6.02575C3.17516 20.6056 3.98444 15.6218 7.55458 13.8508H10.0063L11.2765 16.0507C9.54239 18.047 10.994 21.242 13.663 21.2312C15.0279 21.2312 16.1922 20.356 16.6244 19.1374H23.008V22.0754C23.0633 23.4645 25.047 23.4634 25.1019 22.0754V5.72204C25.2736 1.02896 31.9181 0.835067 32.3811 5.48742C31.4419 6.04878 30.6652 6.83639 30.1118 7.79486C29.8226 8.2956 29.9942 8.93591 30.4949 9.22497C30.9868 9.51151 31.6344 9.34704 31.9251 8.84179C32.3778 8.05764 33.0517 7.44298 33.8739 7.06399C33.8851 7.05886 33.8962 7.05342 33.9072 7.04787C37.3494 5.48606 41.0449 8.84461 39.8215 12.4206C39.8167 12.4329 39.8121 12.4452 39.8077 12.4578C39.4635 13.4415 38.7768 14.2701 37.8743 14.7912C37.3736 15.0803 37.202 15.7205 37.4912 16.2214C37.7818 16.7268 38.4293 16.8911 38.9213 16.6047C39.896 16.042 40.7005 15.2369 41.2623 14.2772C44.1799 16.2601 44.6906 20.6147 42.2685 23.2074C41.9535 23.0845 41.6316 22.9788 41.3058 22.8916C40.747 22.7419 40.1733 23.0735 40.0236 23.6319C39.8739 24.1903 40.2053 24.7645 40.7639 24.9141C41.2025 25.0316 41.6322 25.1922 42.0406 25.3914C42.0556 25.3986 42.0706 25.4055 42.0856 25.412C47.5397 28.0661 47.2552 36.1014 41.6378 38.3727Z" fill="#0883E0"/>
<path d="M34.5787 12.8062C34.9875 12.3974 34.9875 11.7345 34.5787 11.3257C34.1697 10.9168 33.5068 10.9168 33.098 11.3257C31.894 12.5804 29.7276 12.5804 28.5236 11.3257C28.1147 10.9168 27.4518 10.9168 27.0429 11.3257C26.6341 11.7345 26.6341 12.3974 27.0429 12.8062C29.0264 14.8734 32.5953 14.8733 34.5787 12.8062Z" fill="#0883E0"/>
<path d="M32.5922 34.0682C31.4283 34.3801 30.4555 35.1265 29.8529 36.1701C29.2504 37.2137 29.0904 38.4295 29.4022 39.5934C29.5499 40.1564 30.141 40.4839 30.6844 40.3336C31.243 40.184 31.5744 39.6099 31.4247 39.0514C31.0625 37.8032 31.8721 36.4012 33.134 36.0908C34.4616 35.6778 33.947 33.7617 32.5922 34.0682Z" fill="#0883E0"/>
<path d="M35.8381 20.0815C35.4292 19.6727 34.7663 19.6727 34.3575 20.0815C32.2903 22.065 32.2904 25.6336 34.3575 27.6171C34.7664 28.026 35.4292 28.026 35.8381 27.6171C36.247 27.2083 36.247 26.5454 35.8381 26.1364C34.5832 24.9324 34.5833 22.7662 35.8381 21.5621C36.247 21.1533 36.247 20.4903 35.8381 20.0815Z" fill="#0883E0"/>
<path d="M24.0547 25.7397C23.4766 25.7397 23.0078 26.2088 23.0078 26.787C23.063 28.1757 25.0468 28.1752 25.1017 26.787V26.7863C25.1017 26.208 24.6329 25.7397 24.0547 25.7397Z" fill="#0883E0"/>
</svg>
