<svg width="60" height="60" viewBox="0 0 60 60" fill="none" xmlns="http://www.w3.org/2000/svg">
<path d="M30.0001 49.4446C19.2783 49.4446 10.5554 40.7217 10.5554 29.9999C10.5554 19.278 19.2783 10.5552 30.0001 10.5552C40.7219 10.5552 49.4448 19.278 49.4448 29.9999C49.4448 40.7217 40.7219 49.4446 30.0001 49.4446ZM30.0001 14.0708C21.2168 14.0708 14.071 21.2165 14.071 29.9999C14.071 38.7832 21.2168 45.9289 30.0001 45.9289C38.7834 45.9289 45.9292 38.7832 45.9292 29.9999C45.9292 21.2165 38.7834 14.0708 30.0001 14.0708Z" fill="#0883E0"/>
<path d="M28.2422 0H31.7578V7.03969H28.2422V0Z" fill="#0883E0"/>
<path d="M13.4773 4.89795L16.5218 3.14014L20.0417 9.23651L16.9971 10.9943L13.4773 4.89795Z" fill="#0883E0"/>
<path d="M3.13989 16.5225L4.8977 13.4779L10.9941 16.9978L9.23626 20.0423L3.13989 16.5225Z" fill="#0883E0"/>
<path d="M0 28.2422H7.03969V31.7578H0V28.2422Z" fill="#0883E0"/>
<path d="M3.13989 43.4771L9.23626 39.9572L10.9941 43.0017L4.89771 46.5216L3.13989 43.4771Z" fill="#0883E0"/>
<path d="M13.4766 55.1021L16.9964 49.0057L20.0409 50.7635L16.5211 56.8599L13.4766 55.1021Z" fill="#0883E0"/>
<path d="M28.2422 52.9604H31.7578V60.0001H28.2422V52.9604Z" fill="#0883E0"/>
<path d="M39.9568 50.7622L43.0013 49.0044L46.5212 55.1008L43.4766 56.8586L39.9568 50.7622Z" fill="#0883E0"/>
<path d="M49.0042 43.0034L50.762 39.9589L56.8583 43.4787L55.1005 46.5233L49.0042 43.0034Z" fill="#0883E0"/>
<path d="M52.9602 28.2422H59.9999V31.7578H52.9602V28.2422Z" fill="#0883E0"/>
<path d="M49.0042 16.9976L55.1005 13.4777L56.8583 16.5222L50.762 20.0421L49.0042 16.9976Z" fill="#0883E0"/>
<path d="M39.9575 9.23828L43.4774 3.14191L46.5219 4.89973L43.0021 10.9961L39.9575 9.23828Z" fill="#0883E0"/>
<path d="M28.241 35.915H31.7593V39.4307H28.241V35.915Z" fill="#0883E0"/>
<path d="M25.7491 33.4222L23.2632 30.9363C25.0651 29.1344 27.4576 28.1421 30.0002 28.1421C32.5426 28.1421 34.9351 29.1343 36.7371 30.9362L34.2512 33.4222C33.1133 32.2844 31.6035 31.6577 30.0002 31.6577C28.3967 31.6577 26.887 32.2844 25.7491 33.4222Z" fill="#0883E0"/>
<path d="M20.7795 28.4528L18.2935 25.9669C21.4248 22.8354 25.5823 21.1108 30 21.1108C34.4174 21.1108 38.5749 22.8353 41.7063 25.9665L39.2204 28.4525C36.7531 25.9853 33.4785 24.6265 30 24.6265C26.5214 24.6265 23.2469 25.9854 20.7795 28.4528Z" fill="#0883E0"/>
</svg>
