<svg width="16" height="16" viewBox="0 0 16 16" fill="none" xmlns="http://www.w3.org/2000/svg">
<path d="M7.00232 2.37261L7.66296 1.71196C7.94269 1.43223 8.39503 1.43223 8.67178 1.71196L14.4568 7.49406C14.7366 7.77379 14.7366 8.22612 14.4568 8.50287L8.67178 14.2879C8.39205 14.5677 7.93972 14.5677 7.66296 14.2879L7.00232 13.6273C6.71962 13.3446 6.72557 12.8833 7.01423 12.6066L10.6001 9.1903H2.04752C1.65173 9.1903 1.33331 8.87188 1.33331 8.47609V7.52382C1.33331 7.12803 1.65173 6.80961 2.04752 6.80961H10.6001L7.01423 3.39332C6.72259 3.11657 6.71664 2.65531 7.00232 2.37261Z" fill="#fff"/>
</svg>
