<svg width="14" height="14" viewBox="0 0 14 14" fill="none" xmlns="http://www.w3.org/2000/svg">
<path d="M12.7143 5.57159H8.42861V1.28588C8.42861 0.759984 8.00212 0.333496 7.47623 0.333496H6.52385C5.99796 0.333496 5.57147 0.759984 5.57147 1.28588V5.57159H1.28576C0.759862 5.57159 0.333374 5.99808 0.333374 6.52397V7.47635C0.333374 8.00225 0.759862 8.42873 1.28576 8.42873H5.57147V12.7144C5.57147 13.2403 5.99796 13.6668 6.52385 13.6668H7.47623C8.00212 13.6668 8.42861 13.2403 8.42861 12.7144V8.42873H12.7143C13.2402 8.42873 13.6667 8.00225 13.6667 7.47635V6.52397C13.6667 5.99808 13.2402 5.57159 12.7143 5.57159Z" fill="#0883E0"/>
</svg>
