<svg width="192" height="174" viewBox="0 0 192 174" fill="none" xmlns="http://www.w3.org/2000/svg">
<path opacity="0.2" d="M39.0603 86.9647L86.8901 86.9647L86.8901 172.5L1.49998 172.5L1.49999 85.4647C1.49999 74.4467 3.75733 63.5351 8.14476 53.3523C12.5323 43.1694 18.9648 33.9131 27.0781 26.1134C35.1915 18.3136 44.8267 12.1234 55.435 7.89917C65.5814 3.85888 76.4262 1.69332 87.401 1.51235L87.401 36.0716C81.1781 36.2467 75.0349 37.5098 69.2729 39.8042C63.0483 42.2829 57.3887 45.9173 52.6188 50.5029C47.8487 55.0886 44.0616 60.5358 41.4767 66.5352C38.8917 72.5347 37.5603 78.9671 37.5603 85.4647L37.5603 86.9647L39.0603 86.9647ZM142.159 86.9647L189.989 86.9647L189.989 172.5L104.599 172.5L104.599 85.4647C104.599 74.4467 106.856 63.5351 111.244 53.3523C115.631 43.1694 122.064 33.9131 130.177 26.1134C138.29 18.3136 147.926 12.1234 158.534 7.89918C168.68 3.85888 179.525 1.69333 190.5 1.51236L190.5 36.0716C184.277 36.2467 178.134 37.5098 172.372 39.8042C166.147 42.2829 160.488 45.9174 155.718 50.5029C150.948 55.0886 147.161 60.5358 144.576 66.5352C141.991 72.5347 140.659 78.9672 140.659 85.4647L140.659 86.9647L142.159 86.9647Z" stroke="#0883E0" stroke-width="3"/>
</svg>
