<svg width="440" height="58" viewBox="0 0 440 58" fill="none" xmlns="http://www.w3.org/2000/svg">
<g clip-path="url(#clip0)">
<path d="M64.4446 26.0828C64.4446 26.0828 63.1943 25.9548 63.1943 27.0811V32.1236H71.3962V33.6338C71.3962 33.6338 71.4212 34.3761 70.646 34.3761H63.1943V40.9289H72.1464C72.1464 40.9289 77.5726 40.0842 77.6226 34.3761V26.0828H64.4446ZM77.3726 18.0454H61.2188C55.3675 19.4532 55.2424 24.3678 55.2424 24.3678V40.9545H61.4439V25.8524C61.4439 24.5726 62.6942 24.3422 62.6942 24.3422H77.3476L77.3726 18.0454ZM98.7025 36.1935C98.2774 36.4751 97.9524 36.7055 97.7273 36.8334C96.9271 37.3454 96.177 37.7293 95.4768 38.0365C94.4516 38.4716 93.5513 38.6764 92.7262 38.6764C89.9255 38.6764 87.6 37.8061 85.7495 36.0399C83.8741 34.2738 82.9489 32.0468 82.9489 29.3848C82.9489 26.7995 83.7741 24.5726 85.4745 22.6528C87.1499 20.7587 89.2003 19.8116 91.6009 19.8116C92.6011 19.8116 93.6764 19.9908 94.7766 20.3491C96.227 20.8099 97.3772 21.5266 98.3275 22.4225L96.7271 24.2398C96.0519 23.5487 95.1517 23.0624 94.1265 22.7552C93.3513 22.5248 92.5011 22.3969 91.5509 22.3969C89.8755 22.3969 88.4502 23.088 87.2999 24.4702C86.1746 25.878 85.5995 27.5162 85.5995 29.4616C85.5995 31.3813 86.2496 32.9683 87.5499 34.2226C88.8503 35.4768 90.5006 36.1167 92.5011 36.1167C93.3263 36.1167 94.1765 35.8352 95.0517 35.3232C95.7769 34.7601 96.152 34.4785 96.152 34.4785V30.4854H90.7257L91.5009 28.0026H98.7025V36.1935ZM115.031 31.3301C115.031 33.2499 114.356 34.9137 113.031 36.3215C111.706 37.7293 110.055 38.446 108.08 38.446C106.254 38.446 104.679 37.7549 103.304 36.3727C101.928 34.9905 101.253 33.3267 101.253 31.3557C101.253 29.4104 101.903 27.7466 103.204 26.3132C104.504 24.8797 106.104 24.1886 107.955 24.1886C110.03 24.1886 111.706 24.8797 113.031 26.2364C114.356 27.5674 115.031 29.2824 115.031 31.3301ZM112.506 31.3813C112.506 30.0759 112.081 28.9752 111.23 28.0793C110.38 27.1579 109.33 26.7227 108.055 26.7227C106.879 26.7227 105.879 27.1835 105.029 28.1305C104.204 29.052 103.779 30.1271 103.779 31.3301C103.779 32.5844 104.204 33.6594 105.029 34.5553C105.854 35.4512 106.904 35.9119 108.155 35.9119C109.33 35.9119 110.33 35.4768 111.18 34.5809C112.081 33.6594 112.506 32.5844 112.506 31.3813ZM131.16 31.3301C131.16 33.2499 130.485 34.9137 129.16 36.3215C127.834 37.7293 126.184 38.446 124.208 38.446C122.383 38.446 120.808 37.7549 119.432 36.3727C118.057 34.9905 117.382 33.3267 117.382 31.3557C117.382 29.4104 118.032 27.7466 119.332 26.3132C120.633 24.8797 122.233 24.1886 124.083 24.1886C126.159 24.1886 127.834 24.8797 129.16 26.2364C130.485 27.5674 131.16 29.2824 131.16 31.3301ZM128.609 31.3813C128.609 30.0759 128.184 28.9752 127.334 28.0793C126.484 27.1579 125.434 26.7227 124.158 26.7227C122.983 26.7227 121.983 27.1835 121.133 28.1305C120.308 29.052 119.882 30.1271 119.882 31.3301C119.882 32.5844 120.308 33.6594 121.133 34.5553C121.958 35.4512 123.008 35.9119 124.258 35.9119C125.434 35.9119 126.434 35.4768 127.284 34.5809C128.184 33.6594 128.609 32.5844 128.609 31.3813ZM146.064 38.0621L143.738 38.4204V36.1167L143.238 36.7055C142.788 37.1406 142.288 37.4733 141.763 37.7549C140.962 38.1389 140.112 38.318 139.237 38.318C137.412 38.318 135.861 37.6269 134.611 36.2703C133.361 34.9137 132.71 33.2499 132.71 31.3557C132.71 29.3848 133.336 27.6954 134.586 26.3132C135.836 24.9053 137.337 24.2142 139.162 24.2142C140.212 24.2142 141.112 24.3934 141.863 24.7262C142.413 24.9821 142.863 25.3149 143.263 25.7244C143.388 25.9036 143.513 26.0828 143.663 26.262V20.1955L146.139 19.8372L146.064 38.0621ZM143.888 31.5093C143.888 30.1527 143.438 29.0008 142.538 28.0793C141.638 27.1323 140.612 26.6715 139.437 26.6715C138.137 26.6715 137.111 27.1067 136.311 28.0026C135.561 28.8472 135.186 29.8967 135.186 31.1254C135.186 32.5076 135.586 33.6594 136.361 34.5553C137.136 35.4512 138.112 35.8864 139.337 35.8864C140.512 35.8864 141.563 35.4768 142.488 34.6321C143.413 33.7874 143.888 32.7379 143.888 31.5093ZM159.167 22.704H152.215V27.5418H157.616V30.0247H152.215V38.0365L149.514 38.446V20.1955H158.641L159.167 22.704ZM164.743 21.2962L163.068 23.4463L161.467 21.2962L163.143 19.1717L164.743 21.2962ZM164.243 38.0621L161.767 38.4204V24.9053L164.243 24.5214V38.0621ZM175.445 24.3678L174.27 27.1323C174.12 27.1067 173.97 27.1067 173.795 27.1067C173.545 27.1067 173.32 27.1323 173.07 27.1579C172.82 27.1835 172.57 27.2858 172.295 27.4394C171.77 27.6698 171.319 28.1817 170.944 28.924C170.519 29.7943 170.294 30.7414 170.294 31.7141V38.0365L167.819 38.446V24.9053L170.119 24.4702V27.2858C170.419 26.7995 170.719 26.3132 171.019 25.8012C171.444 25.2893 171.945 24.9309 172.495 24.7006C172.795 24.5726 173.32 24.4958 174.145 24.419C174.945 24.3678 175.395 24.3422 175.445 24.3678ZM193.95 38.0621L191.474 38.4204V29.1544C191.474 28.3097 191.299 27.6698 190.924 27.2858C190.549 26.9019 189.999 26.6971 189.274 26.6971C188.398 26.6971 187.748 27.0555 187.298 27.7978C186.998 28.3097 186.823 28.8472 186.823 29.3848V38.0109L184.347 38.4716V29.18C184.347 28.3609 184.172 27.7466 183.797 27.3114C183.422 26.8763 182.947 26.6715 182.322 26.6715H182.072C181.197 26.6715 180.572 27.0299 180.171 27.7978C179.871 28.3609 179.721 29.0776 179.721 29.9479V37.9853L177.146 38.446V24.8541L179.471 24.4446V26.1852C179.721 25.7756 179.996 25.4429 180.222 25.2125C180.897 24.5726 181.672 24.2654 182.547 24.2654C183.522 24.2654 184.247 24.419 184.748 24.7518C185.173 25.0333 185.573 25.5709 185.998 26.3388C186.848 24.9565 188.048 24.2654 189.649 24.2654C191.174 24.2654 192.299 24.7518 193.049 25.75C193.65 26.5691 193.95 27.7722 193.95 29.3336V38.0621ZM205.277 33.9666C205.277 35.2208 204.852 36.2447 204.002 37.0382C203.152 37.8573 202.077 38.2413 200.776 38.2413C199.801 38.2413 198.926 38.0109 198.126 37.5501C197.325 37.0894 196.725 36.5519 196.35 35.9375L198.101 34.3505C198.226 34.5553 198.351 34.7089 198.451 34.8113C199.101 35.5024 199.876 35.8352 200.776 35.8352C201.401 35.8352 201.902 35.656 202.252 35.3232C202.627 34.9905 202.802 34.5297 202.802 33.9154C202.802 33.2243 202.377 32.7635 201.526 32.5076C199.851 31.9956 198.926 31.6885 198.801 31.6373C198.026 31.2277 197.476 30.7926 197.125 30.3063C196.725 29.7431 196.525 29.0008 196.525 28.0537C196.525 26.8763 196.95 25.9292 197.776 25.1357C198.601 24.3678 199.601 23.9839 200.751 23.9839C201.626 23.9839 202.427 24.1886 203.177 24.5982C203.927 25.0077 204.452 25.4429 204.777 25.9292L203.302 27.5674C203.077 27.337 202.827 27.1323 202.577 26.9531C201.977 26.5179 201.401 26.3132 200.876 26.3132C200.351 26.3132 199.926 26.4411 199.601 26.6715C199.201 26.9531 199.001 27.3882 199.001 27.9514C199.001 28.4889 199.176 28.8984 199.576 29.1544C199.901 29.3592 200.601 29.5895 201.727 29.8455C202.827 30.1271 203.702 30.5878 204.302 31.2533C205.002 31.97 205.277 32.8403 205.277 33.9666Z" fill="white"/>
</g>
<path d="M237.237 15.5527H234.355V23.5H232.762V15.5527H229.906V14.2578H237.237V15.5527ZM245.654 19.1201C245.654 20.0257 245.497 20.8213 245.184 21.5068C244.871 22.1882 244.423 22.7129 243.839 23.0811C243.259 23.445 242.59 23.627 241.833 23.627C241.084 23.627 240.415 23.445 239.827 23.0811C239.243 22.7129 238.79 22.1903 238.469 21.5132C238.151 20.8361 237.99 20.0553 237.986 19.1709V18.6504C237.986 17.749 238.145 16.9535 238.462 16.2637C238.784 15.5739 239.234 15.047 239.814 14.6831C240.398 14.3149 241.067 14.1309 241.82 14.1309C242.573 14.1309 243.24 14.3128 243.82 14.6768C244.404 15.0365 244.854 15.557 245.172 16.2383C245.489 16.9154 245.65 17.7046 245.654 18.606V19.1201ZM244.048 18.6377C244.048 17.6136 243.853 16.8286 243.464 16.2827C243.079 15.7368 242.531 15.4639 241.82 15.4639C241.126 15.4639 240.582 15.7368 240.189 16.2827C239.799 16.8244 239.601 17.5924 239.592 18.5869V19.1201C239.592 20.1357 239.789 20.9207 240.182 21.4751C240.58 22.0295 241.13 22.3066 241.833 22.3066C242.544 22.3066 243.09 22.0358 243.47 21.4941C243.856 20.9525 244.048 20.1611 244.048 19.1201V18.6377ZM248.86 20.0659V23.5H247.254V14.2578H250.789C251.822 14.2578 252.641 14.5265 253.246 15.064C253.855 15.6014 254.16 16.3123 254.16 17.1968C254.16 18.1024 253.862 18.807 253.265 19.3105C252.672 19.8141 251.841 20.0659 250.77 20.0659H248.86ZM248.86 18.7773H250.789C251.361 18.7773 251.796 18.644 252.097 18.3774C252.397 18.1066 252.548 17.7173 252.548 17.2095C252.548 16.7101 252.395 16.3123 252.091 16.0161C251.786 15.7157 251.367 15.5612 250.834 15.5527H248.86V18.7773ZM258.806 23.5V14.2578H261.974C263.019 14.2578 263.815 14.4673 264.361 14.8862C264.906 15.3052 265.179 15.9294 265.179 16.7588C265.179 17.182 265.065 17.5628 264.837 17.9014C264.608 18.2399 264.274 18.5023 263.834 18.6885C264.333 18.8239 264.718 19.0799 264.989 19.4565C265.264 19.8289 265.402 20.2775 265.402 20.8022C265.402 21.6698 265.122 22.3363 264.564 22.8018C264.009 23.2673 263.214 23.5 262.177 23.5H258.806ZM260.412 19.3296V22.2178H262.196C262.7 22.2178 263.093 22.0929 263.377 21.8433C263.66 21.5936 263.802 21.2466 263.802 20.8022C263.802 19.8416 263.311 19.3507 262.329 19.3296H260.412ZM260.412 18.1489H261.987C262.486 18.1489 262.875 18.0368 263.155 17.8125C263.438 17.584 263.58 17.2624 263.58 16.8477C263.58 16.3906 263.449 16.0605 263.186 15.8574C262.928 15.6543 262.524 15.5527 261.974 15.5527H260.412V18.1489ZM268.614 22.2178H272.809V23.5H267.008V14.2578H268.614V22.2178ZM281.01 19.1201C281.01 20.0257 280.854 20.8213 280.541 21.5068C280.228 22.1882 279.779 22.7129 279.195 23.0811C278.615 23.445 277.947 23.627 277.189 23.627C276.44 23.627 275.772 23.445 275.183 23.0811C274.599 22.7129 274.147 22.1903 273.825 21.5132C273.508 20.8361 273.347 20.0553 273.343 19.1709V18.6504C273.343 17.749 273.501 16.9535 273.819 16.2637C274.14 15.5739 274.591 15.047 275.171 14.6831C275.755 14.3149 276.423 14.1309 277.177 14.1309C277.93 14.1309 278.596 14.3128 279.176 14.6768C279.76 15.0365 280.211 15.557 280.528 16.2383C280.845 16.9154 281.006 17.7046 281.01 18.606V19.1201ZM279.405 18.6377C279.405 17.6136 279.21 16.8286 278.821 16.2827C278.435 15.7368 277.887 15.4639 277.177 15.4639C276.483 15.4639 275.939 15.7368 275.545 16.2827C275.156 16.8244 274.957 17.5924 274.948 18.5869V19.1201C274.948 20.1357 275.145 20.9207 275.539 21.4751C275.937 22.0295 276.487 22.3066 277.189 22.3066C277.9 22.3066 278.446 22.0358 278.827 21.4941C279.212 20.9525 279.405 20.1611 279.405 19.1201V18.6377ZM289.662 20.4912C289.569 21.4772 289.205 22.2474 288.571 22.8018C287.936 23.3519 287.092 23.627 286.038 23.627C285.302 23.627 284.652 23.4535 284.089 23.1064C283.531 22.7552 283.099 22.258 282.794 21.6147C282.49 20.9715 282.331 20.2246 282.318 19.374V18.5107C282.318 17.639 282.473 16.8709 282.781 16.2065C283.09 15.5422 283.533 15.0301 284.108 14.6704C284.688 14.3107 285.357 14.1309 286.114 14.1309C287.134 14.1309 287.955 14.408 288.577 14.9624C289.199 15.5168 289.561 16.2996 289.662 17.311H288.063C287.987 16.6466 287.792 16.1685 287.479 15.8765C287.17 15.5802 286.715 15.4321 286.114 15.4321C285.416 15.4321 284.878 15.6882 284.502 16.2002C284.129 16.708 283.939 17.4549 283.93 18.4409V19.2598C283.93 20.2585 284.108 21.0202 284.464 21.5449C284.823 22.0697 285.348 22.332 286.038 22.332C286.668 22.332 287.142 22.1903 287.46 21.9067C287.777 21.6232 287.978 21.1514 288.063 20.4912H289.662ZM293.757 19.5073L292.709 20.6182V23.5H291.103V14.2578H292.709V18.5933L293.598 17.4951L296.302 14.2578H298.244L294.81 18.3521L298.441 23.5H296.537L293.757 19.5073ZM306.154 20.4912C306.06 21.4772 305.697 22.2474 305.062 22.8018C304.427 23.3519 303.583 23.627 302.529 23.627C301.793 23.627 301.143 23.4535 300.58 23.1064C300.022 22.7552 299.59 22.258 299.285 21.6147C298.981 20.9715 298.822 20.2246 298.809 19.374V18.5107C298.809 17.639 298.964 16.8709 299.273 16.2065C299.582 15.5422 300.024 15.0301 300.599 14.6704C301.179 14.3107 301.848 14.1309 302.605 14.1309C303.625 14.1309 304.446 14.408 305.068 14.9624C305.69 15.5168 306.052 16.2996 306.154 17.311H304.554C304.478 16.6466 304.283 16.1685 303.97 15.8765C303.661 15.5802 303.206 15.4321 302.605 15.4321C301.907 15.4321 301.37 15.6882 300.993 16.2002C300.621 16.708 300.43 17.4549 300.422 18.4409V19.2598C300.422 20.2585 300.599 21.0202 300.955 21.5449C301.315 22.0697 301.839 22.332 302.529 22.332C303.16 22.332 303.634 22.1903 303.951 21.9067C304.268 21.6232 304.469 21.1514 304.554 20.4912H306.154ZM314.932 23.5H313.333V19.3931H309.2V23.5H307.594V14.2578H309.2V18.1045H313.333V14.2578H314.932V23.5ZM322.124 21.3481H318.544L317.795 23.5H316.126L319.617 14.2578H321.058L324.555 23.5H322.88L322.124 21.3481ZM318.995 20.0532H321.674L320.334 16.2192L318.995 20.0532ZM327.304 23.5H325.704V14.2578H327.304V23.5ZM336.61 23.5H335.004L330.884 16.9429V23.5H329.278V14.2578H330.884L335.016 20.8403V14.2578H336.61V23.5ZM230.559 44.5V35.2578H233.289C234.106 35.2578 234.829 35.4398 235.46 35.8037C236.094 36.1676 236.585 36.6839 236.932 37.3525C237.279 38.0212 237.453 38.7871 237.453 39.6504V40.1138C237.453 40.9897 237.277 41.7599 236.926 42.4243C236.579 43.0887 236.082 43.6007 235.434 43.9604C234.791 44.3201 234.053 44.5 233.219 44.5H230.559ZM232.165 36.5527V43.2178H233.213C234.055 43.2178 234.7 42.9554 235.149 42.4307C235.601 41.9017 235.832 41.1442 235.841 40.1582V39.644C235.841 38.6411 235.623 37.8752 235.187 37.3462C234.751 36.8172 234.118 36.5527 233.289 36.5527H232.165ZM244.454 40.374H240.658V43.2178H245.095V44.5H239.052V35.2578H245.051V36.5527H240.658V39.1045H244.454V40.374ZM249.659 42.4878L252.008 35.2578H253.773L250.447 44.5H248.891L245.578 35.2578H247.336L249.659 42.4878ZM260.222 40.374H256.426V43.2178H260.863V44.5H254.82V35.2578H260.819V36.5527H256.426V39.1045H260.222V40.374ZM263.777 43.2178H267.972V44.5H262.171V35.2578H263.777V43.2178ZM276.174 40.1201C276.174 41.0257 276.017 41.8213 275.704 42.5068C275.391 43.1882 274.942 43.7129 274.358 44.0811C273.778 44.445 273.11 44.627 272.352 44.627C271.603 44.627 270.935 44.445 270.346 44.0811C269.762 43.7129 269.31 43.1903 268.988 42.5132C268.671 41.8361 268.51 41.0553 268.506 40.1709V39.6504C268.506 38.749 268.664 37.9535 268.982 37.2637C269.303 36.5739 269.754 36.047 270.334 35.6831C270.918 35.3149 271.586 35.1309 272.34 35.1309C273.093 35.1309 273.759 35.3128 274.339 35.6768C274.923 36.0365 275.374 36.557 275.691 37.2383C276.009 37.9154 276.169 38.7046 276.174 39.606V40.1201ZM274.568 39.6377C274.568 38.6136 274.373 37.8286 273.984 37.2827C273.599 36.7368 273.051 36.4639 272.34 36.4639C271.646 36.4639 271.102 36.7368 270.708 37.2827C270.319 37.8244 270.12 38.5924 270.112 39.5869V40.1201C270.112 41.1357 270.308 41.9207 270.702 42.4751C271.1 43.0295 271.65 43.3066 272.352 43.3066C273.063 43.3066 273.609 43.0358 273.99 42.4941C274.375 41.9525 274.568 41.1611 274.568 40.1201V39.6377ZM279.379 41.0659V44.5H277.773V35.2578H281.309C282.341 35.2578 283.16 35.5265 283.765 36.064C284.375 36.6014 284.679 37.3123 284.679 38.1968C284.679 39.1024 284.381 39.807 283.784 40.3105C283.192 40.8141 282.36 41.0659 281.29 41.0659H279.379ZM279.379 39.7773H281.309C281.88 39.7773 282.316 39.644 282.616 39.3774C282.917 39.1066 283.067 38.7173 283.067 38.2095C283.067 37.7101 282.915 37.3123 282.61 37.0161C282.305 36.7157 281.886 36.5612 281.353 36.5527H279.379V39.7773ZM288.171 35.2578L290.837 42.3418L293.496 35.2578H295.572V44.5H293.972V41.4531L294.131 37.3779L291.402 44.5H290.253L287.53 37.3843L287.688 41.4531V44.5H286.089V35.2578H288.171ZM302.878 40.374H299.082V43.2178H303.519V44.5H297.476V35.2578H303.475V36.5527H299.082V39.1045H302.878V40.374ZM312.158 44.5H310.552L306.433 37.9429V44.5H304.827V35.2578H306.433L310.565 41.8403V35.2578H312.158V44.5ZM320.544 36.5527H317.662V44.5H316.069V36.5527H313.212V35.2578H320.544V36.5527ZM331.671 41.4912C331.578 42.4772 331.214 43.2474 330.579 43.8018C329.945 44.3519 329.1 44.627 328.047 44.627C327.31 44.627 326.661 44.4535 326.098 44.1064C325.539 43.7552 325.108 43.258 324.803 42.6147C324.498 41.9715 324.34 41.2246 324.327 40.374V39.5107C324.327 38.639 324.481 37.8709 324.79 37.2065C325.099 36.5422 325.541 36.0301 326.117 35.6704C326.697 35.3107 327.365 35.1309 328.123 35.1309C329.143 35.1309 329.964 35.408 330.586 35.9624C331.208 36.5168 331.57 37.2996 331.671 38.311H330.072C329.995 37.6466 329.801 37.1685 329.488 36.8765C329.179 36.5802 328.724 36.4321 328.123 36.4321C327.425 36.4321 326.887 36.6882 326.51 37.2002C326.138 37.708 325.948 38.4549 325.939 39.4409V40.2598C325.939 41.2585 326.117 42.0202 326.472 42.5449C326.832 43.0697 327.357 43.332 328.047 43.332C328.677 43.332 329.151 43.1903 329.469 42.9067C329.786 42.6232 329.987 42.1514 330.072 41.4912H331.671ZM340.488 40.1201C340.488 41.0257 340.331 41.8213 340.018 42.5068C339.705 43.1882 339.257 43.7129 338.673 44.0811C338.093 44.445 337.424 44.627 336.667 44.627C335.918 44.627 335.249 44.445 334.661 44.0811C334.077 43.7129 333.624 43.1903 333.302 42.5132C332.985 41.8361 332.824 41.0553 332.82 40.1709V39.6504C332.82 38.749 332.979 37.9535 333.296 37.2637C333.618 36.5739 334.068 36.047 334.648 35.6831C335.232 35.3149 335.901 35.1309 336.654 35.1309C337.407 35.1309 338.074 35.3128 338.654 35.6768C339.238 36.0365 339.688 36.557 340.006 37.2383C340.323 37.9154 340.484 38.7046 340.488 39.606V40.1201ZM338.882 39.6377C338.882 38.6136 338.687 37.8286 338.298 37.2827C337.913 36.7368 337.365 36.4639 336.654 36.4639C335.96 36.4639 335.416 36.7368 335.023 37.2827C334.633 37.8244 334.434 38.5924 334.426 39.5869V40.1201C334.426 41.1357 334.623 41.9207 335.016 42.4751C335.414 43.0295 335.964 43.3066 336.667 43.3066C337.378 43.3066 337.924 43.0358 338.304 42.4941C338.69 41.9525 338.882 41.1611 338.882 40.1201V39.6377ZM344.17 35.2578L346.836 42.3418L349.495 35.2578H351.571V44.5H349.971V41.4531L350.13 37.3779L347.401 44.5H346.252L343.529 37.3843L343.687 41.4531V44.5H342.088V35.2578H344.17ZM355.081 41.0659V44.5H353.475V35.2578H357.011C358.044 35.2578 358.862 35.5265 359.468 36.064C360.077 36.6014 360.382 37.3123 360.382 38.1968C360.382 39.1024 360.083 39.807 359.487 40.3105C358.894 40.8141 358.063 41.0659 356.992 41.0659H355.081ZM355.081 39.7773H357.011C357.582 39.7773 358.018 39.644 358.319 39.3774C358.619 39.1066 358.769 38.7173 358.769 38.2095C358.769 37.7101 358.617 37.3123 358.312 37.0161C358.008 36.7157 357.589 36.5612 357.055 36.5527H355.081V39.7773ZM365.834 42.3481H362.254L361.505 44.5H359.836L363.327 35.2578H364.768L368.265 44.5H366.59L365.834 42.3481ZM362.705 41.0532H365.384L364.044 37.2192L362.705 41.0532ZM376.651 44.5H375.045L370.925 37.9429V44.5H369.319V35.2578H370.925L375.057 41.8403V35.2578H376.651V44.5ZM381.386 39.6377L383.512 35.2578H385.29L382.192 41.0977V44.5H380.58V41.0977L377.476 35.2578H379.26L381.386 39.6377Z" fill="white"/>
<path d="M11.7913 0.211612C11.7636 0.241275 11.7373 0.269323 11.7129 0.292005C10.5951 1.54586 9.62025 3.08713 9.5325 4.81937C9.45844 5.57184 9.72127 6.27935 9.97774 6.96973C9.99215 7.00852 10.0065 7.04726 10.0209 7.08595C9.59354 7.73988 9.12617 8.36873 8.64353 8.98215C8.39172 7.64343 7.89383 6.34907 7.12123 5.22832C6.16741 6.77924 5.3662 8.56163 5.56078 10.4328C5.62946 11.297 6.03388 12.0859 6.55848 12.7572C6.22655 13.4729 5.90225 14.1924 5.61992 14.9293C5.03618 13.7005 4.31318 12.5315 3.34791 11.5689C2.75845 13.0292 2.44751 14.6418 2.67642 16.2159C2.81377 17.3521 3.45856 18.3475 4.31127 19.0747C4.13577 19.8617 3.97744 20.6545 3.84009 21.4493C3.07321 20.3189 2.10794 19.3042 0.929022 18.6137C0.681027 20.1009 0.682934 21.6673 1.16366 23.1082C1.50322 24.1345 2.2224 25.0102 3.15143 25.5484C3.41167 25.6508 3.44532 25.9155 3.47699 26.1646C3.48409 26.2204 3.49109 26.2755 3.50052 26.3277C3.42803 26.9392 3.44139 27.5584 3.4681 28.1738C2.49901 27.1611 1.27621 26.4531 0 25.9111C0.0686753 27.3308 0.328112 28.7679 1.00533 30.0295C1.59479 31.2004 2.68596 32.0607 3.93547 32.4022C4.01559 32.923 4.1434 33.4342 4.31509 33.9338C4.3266 34.0283 4.33908 34.1228 4.35158 34.2175C4.37428 34.3895 4.39707 34.5621 4.41429 34.7362C3.26207 34.0187 1.9706 33.5364 0.635246 33.33C0.999606 34.9079 1.70925 36.4492 2.87291 37.5854C3.65695 38.3686 4.73286 38.7544 5.8164 38.8277C5.96694 39.2218 6.14031 39.6057 6.31364 39.9895L6.31392 39.9902C6.46121 40.3163 6.60846 40.6424 6.74161 40.9746C5.45014 40.5792 4.10525 40.3381 2.75273 40.4384C3.47 41.9661 4.54591 43.3897 6.01861 44.2385C6.89613 44.7632 7.9358 44.8037 8.92586 44.7227C9.13771 44.9812 9.33129 45.2545 9.52499 45.5281C9.80399 45.9221 10.0832 46.3164 10.4176 46.6671C9.03651 46.4626 7.61913 46.5494 6.27233 46.9198C7.52184 48.546 9.29404 50.0506 11.4172 50.149C11.7672 50.1917 12.106 50.1047 12.4425 50.0183C12.7131 49.9489 12.9822 49.8798 13.2543 49.8789C13.5164 50.0954 13.7681 50.325 14.02 50.5548L14.0204 50.5552C14.3495 50.8554 14.6789 51.1559 15.0322 51.4279C13.6416 51.4993 12.2909 51.9217 11.0414 52.5294C12.5294 53.7774 14.3932 54.8191 16.3848 54.6686C16.9598 54.651 17.4696 54.4043 17.9764 54.159C18.1354 54.082 18.2942 54.0052 18.4545 53.9356C21.6212 55.8607 25.0951 57.3885 28.7558 58C28.8142 57.5768 28.8878 57.1564 28.9613 56.7364L28.9783 56.6394C28.9855 56.5978 28.9928 56.5562 29 56.5147C26.2454 55.9051 23.5518 54.9676 21.0642 53.6154C21.3885 52.4464 21.3637 51.1829 20.8467 50.0718C20.3088 48.9433 19.6335 47.8438 18.6739 47.0298C18.094 48.5382 17.7831 50.176 18.073 51.7886C17.3501 51.2838 16.659 50.7382 15.9668 50.1917L15.8296 50.0834C17.0658 47.8322 16.2226 45.0738 14.8758 43.0792C13.9392 44.4179 13.4031 46.019 13.2829 47.6509C12.7436 47.0632 12.2328 46.4521 11.7219 45.8409L11.7217 45.8408L11.4382 45.502C13.1742 43.5865 12.8156 40.7026 11.9647 38.4631C10.7839 39.5607 9.90258 40.9901 9.45619 42.5487C8.93349 41.7829 8.51191 40.9554 8.10367 40.124C10.183 38.5904 10.4367 35.7007 10.0533 33.3242C8.6588 34.1903 7.49895 35.4172 6.71491 36.8697C6.66313 36.7027 6.61064 36.5359 6.55816 36.3692L6.55794 36.3685C6.32432 35.6261 6.09072 34.8838 5.91942 34.1248C8.30207 33.1371 9.12235 30.3015 9.22155 27.9192C7.69162 28.4882 6.27805 29.4161 5.25556 30.7123C5.12202 29.7556 5.03046 28.7911 5.02092 27.8266C7.56381 27.3771 8.94113 24.773 9.5325 22.4639C7.91672 22.6761 6.37153 23.3262 5.08005 24.3274C5.12305 23.477 5.24975 22.6361 5.37633 21.796L5.39493 21.6725C5.40254 21.6219 5.41014 21.5713 5.41771 21.5207C8.00829 21.538 9.91403 19.3505 10.9632 17.1727C9.33601 17.0762 7.67254 17.3328 6.21319 18.0967C6.45291 17.2185 6.75501 16.3618 7.05747 15.5042L7.0888 15.4154C9.60499 15.9111 12.0105 14.2985 13.3974 12.2904C11.8446 11.8776 10.204 11.785 8.6359 12.1843C9.04046 11.3354 9.5528 10.5477 10.0637 9.76216L10.0705 9.75183C12.3348 10.8436 14.8873 9.68624 16.7014 8.23371C16.7043 8.20184 16.7086 8.15451 16.7129 8.10719C16.7172 8.05999 16.7215 8.0128 16.7243 7.98101C15.3107 7.29235 13.7598 6.88919 12.1841 6.9297C12.518 6.56126 12.8499 6.19282 13.178 5.81859C13.9315 5.78387 14.7156 5.74336 15.3985 5.38264C17.1173 4.52617 18.2142 2.79006 18.9086 1.04431C16.6327 1.06168 14.128 1.83906 12.8499 3.87995C12.9224 2.58945 12.6839 1.29702 12.2585 0.0856007C12.0913 -0.109039 11.924 0.0697474 11.7913 0.211612Z" fill="white"/>
<path d="M428.209 0.211612C428.236 0.241275 428.263 0.269323 428.287 0.292005C429.405 1.54586 430.38 3.08713 430.468 4.81937C430.542 5.57184 430.279 6.27935 430.022 6.96973C430.008 7.00852 429.993 7.04726 429.979 7.08595C430.406 7.73988 430.874 8.36873 431.356 8.98215C431.608 7.64343 432.106 6.34907 432.879 5.22832C433.833 6.77924 434.634 8.56163 434.439 10.4328C434.371 11.297 433.966 12.0859 433.442 12.7572C433.773 13.4729 434.098 14.1924 434.38 14.9293C434.964 13.7005 435.687 12.5315 436.652 11.5689C437.242 13.0292 437.552 14.6418 437.324 16.2159C437.186 17.3521 436.541 18.3475 435.689 19.0747C435.864 19.8617 436.023 20.6545 436.16 21.4493C436.927 20.3189 437.892 19.3042 439.071 18.6137C439.319 20.1009 439.317 21.6673 438.836 23.1082C438.497 24.1345 437.778 25.0102 436.849 25.5484C436.588 25.6508 436.555 25.9155 436.523 26.1646C436.516 26.2204 436.509 26.2755 436.499 26.3277C436.572 26.9392 436.559 27.5584 436.532 28.1738C437.501 27.1611 438.724 26.4531 440 25.9111C439.931 27.3308 439.672 28.7679 438.995 30.0295C438.405 31.2004 437.314 32.0607 436.065 32.4022C435.984 32.923 435.857 33.4342 435.685 33.9338C435.673 34.0283 435.661 34.1228 435.648 34.2175C435.626 34.3895 435.603 34.5621 435.586 34.7362C436.738 34.0187 438.029 33.5364 439.365 33.33C439 34.9079 438.291 36.4492 437.127 37.5854C436.343 38.3686 435.267 38.7544 434.184 38.8277C434.033 39.2218 433.86 39.6057 433.686 39.9895L433.686 39.9902C433.539 40.3163 433.392 40.6424 433.258 40.9746C434.55 40.5792 435.895 40.3381 437.247 40.4384C436.53 41.9661 435.454 43.3897 433.981 44.2385C433.104 44.7632 432.064 44.8037 431.074 44.7227C430.862 44.9812 430.669 45.2545 430.475 45.5281C430.196 45.9221 429.917 46.3164 429.582 46.6671C430.963 46.4626 432.381 46.5494 433.728 46.9198C432.478 48.546 430.706 50.0506 428.583 50.149C428.233 50.1917 427.894 50.1047 427.558 50.0183C427.287 49.9489 427.018 49.8798 426.746 49.8789C426.484 50.0954 426.232 50.325 425.98 50.5548L425.98 50.5552C425.65 50.8554 425.321 51.1559 424.968 51.4279C426.358 51.4993 427.709 51.9217 428.959 52.5294C427.471 53.7774 425.607 54.8191 423.615 54.6686C423.04 54.651 422.53 54.4043 422.024 54.159C421.865 54.082 421.706 54.0052 421.545 53.9356C418.379 55.8607 414.905 57.3885 411.244 58C411.186 57.5768 411.112 57.1564 411.039 56.7364L411.022 56.6394C411.014 56.5978 411.007 56.5562 411 56.5147C413.755 55.9051 416.448 54.9676 418.936 53.6154C418.611 52.4464 418.636 51.1829 419.153 50.0718C419.691 48.9433 420.367 47.8438 421.326 47.0298C421.906 48.5382 422.217 50.176 421.927 51.7886C422.65 51.2838 423.341 50.7382 424.033 50.1917L424.17 50.0834C422.934 47.8322 423.777 45.0738 425.124 43.0792C426.061 44.4179 426.597 46.019 426.717 47.6509C427.256 47.0632 427.767 46.4521 428.278 45.8409L428.278 45.8408L428.562 45.502C426.826 43.5865 427.184 40.7026 428.035 38.4631C429.216 39.5607 430.097 40.9901 430.544 42.5487C431.067 41.7829 431.488 40.9554 431.896 40.124C429.817 38.5904 429.563 35.7007 429.947 33.3242C431.341 34.1903 432.501 35.4172 433.285 36.8697C433.337 36.7027 433.389 36.5359 433.442 36.3692L433.442 36.3685C433.676 35.6261 433.909 34.8838 434.081 34.1248C431.698 33.1371 430.878 30.3015 430.778 27.9192C432.308 28.4882 433.722 29.4161 434.744 30.7123C434.878 29.7556 434.97 28.7911 434.979 27.8266C432.436 27.3771 431.059 24.773 430.468 22.4639C432.083 22.6761 433.628 23.3262 434.92 24.3274C434.877 23.477 434.75 22.6361 434.624 21.796L434.605 21.6725C434.597 21.6219 434.59 21.5713 434.582 21.5207C431.992 21.538 430.086 19.3505 429.037 17.1727C430.664 17.0762 432.327 17.3328 433.787 18.0967C433.547 17.2185 433.245 16.3618 432.943 15.5042L432.911 15.4154C430.395 15.9111 427.989 14.2985 426.603 12.2904C428.155 11.8776 429.796 11.785 431.364 12.1843C430.96 11.3354 430.447 10.5477 429.936 9.76216L429.93 9.75183C427.665 10.8436 425.113 9.68624 423.299 8.23371C423.296 8.20184 423.291 8.15451 423.287 8.10719C423.283 8.05999 423.279 8.0128 423.276 7.98101C424.689 7.29235 426.24 6.88919 427.816 6.9297C427.482 6.56126 427.15 6.19282 426.822 5.81859C426.068 5.78387 425.284 5.74336 424.601 5.38264C422.883 4.52617 421.786 2.79006 421.091 1.04431C423.367 1.06168 425.872 1.83906 427.15 3.87995C427.078 2.58945 427.316 1.29702 427.741 0.0856007C427.909 -0.109039 428.076 0.0697474 428.209 0.211612Z" fill="white"/>
<defs>
<clipPath id="clip0">
<rect width="150.72" height="24" fill="white" transform="translate(54.8999 17.5)"/>
</clipPath>
</defs>
</svg>
