
<svg width="600" height="600" viewBox="0 0 600 600" fill="none" xmlns="http://www.w3.org/2000/svg">
<g opacity="0.2">
<path d="M19 576L19 539" stroke="#0883E0" stroke-width="3"/>
<line x1="2.62268e-07" y1="557.5" x2="37" y2="557.5" stroke="#0883E0" stroke-width="3"/>
</g>
<g opacity="0.2">
<path d="M540 37L540 -3.81468e-07" stroke="#0883E0" stroke-width="3"/>
<line x1="521" y1="18.5" x2="558" y2="18.5" stroke="#0883E0" stroke-width="3"/>
</g>
<path opacity="0.2" d="M289.06 374.965L336.89 374.965L336.89 460.5L251.5 460.5L251.5 373.465C251.5 362.447 253.757 351.535 258.145 341.352C262.532 331.169 268.965 321.913 277.078 314.113C285.191 306.314 294.827 300.123 305.435 295.899C315.581 291.859 326.426 289.693 337.401 289.512L337.401 324.072C331.178 324.247 325.035 325.51 319.273 327.804C313.048 330.283 307.389 333.917 302.619 338.503C297.849 343.089 294.062 348.536 291.477 354.535C288.892 360.535 287.56 366.967 287.56 373.465L287.56 374.965L289.06 374.965ZM392.159 374.965L439.989 374.965L439.989 460.5L354.599 460.5L354.599 373.465C354.599 362.447 356.856 351.535 361.244 341.352C365.631 331.169 372.064 321.913 380.177 314.113C388.29 306.314 397.926 300.123 408.534 295.899C418.68 291.859 429.525 289.693 440.5 289.512L440.5 324.072C434.277 324.247 428.134 325.51 422.372 327.804C416.147 330.283 410.488 333.917 405.718 338.503C400.948 343.089 397.161 348.536 394.576 354.535C391.991 360.535 390.659 366.967 390.659 373.465L390.659 374.965L392.159 374.965Z" stroke="#0883E0" stroke-width="3"/>
</svg>