<svg width="146" height="16" viewBox="0 0 146 16" fill="none" xmlns="http://www.w3.org/2000/svg">
<path d="M4.48438 10.9766C5 10.9766 5.45052 10.8203 5.83594 10.5078C6.22135 10.1953 6.4349 9.80469 6.47656 9.33594H7.84375C7.81771 9.82031 7.65104 10.2812 7.34375 10.7188C7.03646 11.1562 6.625 11.5052 6.10938 11.7656C5.59896 12.026 5.05729 12.1562 4.48438 12.1562C3.33333 12.1562 2.41667 11.7734 1.73438 11.0078C1.05729 10.237 0.71875 9.1849 0.71875 7.85156V7.60938C0.71875 6.78646 0.869792 6.05469 1.17188 5.41406C1.47396 4.77344 1.90625 4.27604 2.46875 3.92188C3.03646 3.56771 3.70573 3.39062 4.47656 3.39062C5.42448 3.39062 6.21094 3.67448 6.83594 4.24219C7.46615 4.8099 7.80208 5.54688 7.84375 6.45312H6.47656C6.4349 5.90625 6.22656 5.45833 5.85156 5.10938C5.48177 4.75521 5.02344 4.57812 4.47656 4.57812C3.74219 4.57812 3.17188 4.84375 2.76562 5.375C2.36458 5.90104 2.16406 6.66406 2.16406 7.66406V7.9375C2.16406 8.91146 2.36458 9.66146 2.76562 10.1875C3.16667 10.7135 3.73958 10.9766 4.48438 10.9766ZM9.08594 7.69531C9.08594 6.86719 9.2474 6.1224 9.57031 5.46094C9.89844 4.79948 10.3516 4.28906 10.9297 3.92969C11.513 3.57031 12.1771 3.39062 12.9219 3.39062C14.0729 3.39062 15.0026 3.78906 15.7109 4.58594C16.4245 5.38281 16.7812 6.44271 16.7812 7.76562V7.86719C16.7812 8.6901 16.6224 9.42969 16.3047 10.0859C15.9922 10.737 15.5417 11.2448 14.9531 11.6094C14.3698 11.974 13.6979 12.1562 12.9375 12.1562C11.7917 12.1562 10.862 11.7578 10.1484 10.9609C9.4401 10.1641 9.08594 9.10938 9.08594 7.79688V7.69531ZM10.5391 7.86719C10.5391 8.80469 10.7552 9.55729 11.1875 10.125C11.625 10.6927 12.2083 10.9766 12.9375 10.9766C13.6719 10.9766 14.2552 10.6901 14.6875 10.1172C15.1198 9.53906 15.3359 8.73177 15.3359 7.69531C15.3359 6.76823 15.1146 6.01823 14.6719 5.44531C14.2344 4.86719 13.651 4.57812 12.9219 4.57812C12.2083 4.57812 11.6328 4.86198 11.1953 5.42969C10.7578 5.9974 10.5391 6.8099 10.5391 7.86719ZM19.9609 3.54688L20.0078 4.60938C20.6536 3.79688 21.4974 3.39062 22.5391 3.39062C24.3255 3.39062 25.2266 4.39844 25.2422 6.41406V12H23.7969V6.40625C23.7917 5.79688 23.651 5.34635 23.375 5.05469C23.1042 4.76302 22.6797 4.61719 22.1016 4.61719C21.6328 4.61719 21.2214 4.74219 20.8672 4.99219C20.513 5.24219 20.237 5.57031 20.0391 5.97656V12H18.5938V3.54688H19.9609ZM29.3828 1.5V3.54688H30.9609V4.66406H29.3828V9.90625C29.3828 10.2448 29.4531 10.5 29.5938 10.6719C29.7344 10.8385 29.974 10.9219 30.3125 10.9219C30.4792 10.9219 30.7083 10.8906 31 10.8281V12C30.6198 12.1042 30.25 12.1562 29.8906 12.1562C29.2448 12.1562 28.7578 11.9609 28.4297 11.5703C28.1016 11.1797 27.9375 10.625 27.9375 9.90625V4.66406H26.3984V3.54688H27.9375V1.5H29.3828ZM37.875 12C37.7917 11.8333 37.724 11.5365 37.6719 11.1094C37 11.8073 36.1979 12.1562 35.2656 12.1562C34.4323 12.1562 33.7474 11.9219 33.2109 11.4531C32.6797 10.9792 32.4141 10.3802 32.4141 9.65625C32.4141 8.77604 32.7474 8.09375 33.4141 7.60938C34.0859 7.11979 35.0286 6.875 36.2422 6.875H37.6484V6.21094C37.6484 5.70573 37.4974 5.30469 37.1953 5.00781C36.8932 4.70573 36.4479 4.55469 35.8594 4.55469C35.3438 4.55469 34.9115 4.6849 34.5625 4.94531C34.2135 5.20573 34.0391 5.52083 34.0391 5.89062H32.5859C32.5859 5.46875 32.7344 5.0625 33.0312 4.67188C33.3333 4.27604 33.7396 3.96354 34.25 3.73438C34.7656 3.50521 35.3307 3.39062 35.9453 3.39062C36.9193 3.39062 37.6823 3.63542 38.2344 4.125C38.7865 4.60938 39.0729 5.27865 39.0938 6.13281V10.0234C39.0938 10.7995 39.1927 11.4167 39.3906 11.875V12H37.875ZM35.4766 10.8984C35.9297 10.8984 36.3594 10.7812 36.7656 10.5469C37.1719 10.3125 37.4661 10.0078 37.6484 9.63281V7.89844H36.5156C34.7448 7.89844 33.8594 8.41667 33.8594 9.45312C33.8594 9.90625 34.0104 10.2604 34.3125 10.5156C34.6146 10.7708 35.0026 10.8984 35.4766 10.8984ZM44.75 10.9766C45.2656 10.9766 45.7161 10.8203 46.1016 10.5078C46.487 10.1953 46.7005 9.80469 46.7422 9.33594H48.1094C48.0833 9.82031 47.9167 10.2812 47.6094 10.7188C47.3021 11.1562 46.8906 11.5052 46.375 11.7656C45.8646 12.026 45.3229 12.1562 44.75 12.1562C43.599 12.1562 42.6823 11.7734 42 11.0078C41.3229 10.237 40.9844 9.1849 40.9844 7.85156V7.60938C40.9844 6.78646 41.1354 6.05469 41.4375 5.41406C41.7396 4.77344 42.1719 4.27604 42.7344 3.92188C43.3021 3.56771 43.9714 3.39062 44.7422 3.39062C45.6901 3.39062 46.4766 3.67448 47.1016 4.24219C47.7318 4.8099 48.0677 5.54688 48.1094 6.45312H46.7422C46.7005 5.90625 46.4922 5.45833 46.1172 5.10938C45.7474 4.75521 45.2891 4.57812 44.7422 4.57812C44.0078 4.57812 43.4375 4.84375 43.0312 5.375C42.6302 5.90104 42.4297 6.66406 42.4297 7.66406V7.9375C42.4297 8.91146 42.6302 9.66146 43.0312 10.1875C43.4323 10.7135 44.0052 10.9766 44.75 10.9766ZM51.6953 1.5V3.54688H53.2734V4.66406H51.6953V9.90625C51.6953 10.2448 51.7656 10.5 51.9062 10.6719C52.0469 10.8385 52.2865 10.9219 52.625 10.9219C52.7917 10.9219 53.0208 10.8906 53.3125 10.8281V12C52.9323 12.1042 52.5625 12.1562 52.2031 12.1562C51.5573 12.1562 51.0703 11.9609 50.7422 11.5703C50.4141 11.1797 50.25 10.625 50.25 9.90625V4.66406H48.7109V3.54688H50.25V1.5H51.6953ZM67.4531 8.07812C67.3906 9.33854 67.0781 10.3333 66.5156 11.0625C65.9531 11.7917 65.2005 12.1562 64.2578 12.1562C63.2839 12.1562 62.6589 11.7188 62.3828 10.8438C62.1016 11.2865 61.7786 11.6172 61.4141 11.8359C61.0547 12.0495 60.6823 12.1562 60.2969 12.1562C59.5573 12.1562 58.9974 11.8542 58.6172 11.25C58.237 10.6458 58.0964 9.8099 58.1953 8.74219C58.2734 7.88281 58.4688 7.11719 58.7812 6.44531C59.099 5.76823 59.5052 5.23698 60 4.85156C60.5 4.46615 61.0234 4.27344 61.5703 4.27344C61.9922 4.27344 62.3698 4.33073 62.7031 4.44531C63.0365 4.55469 63.4115 4.77344 63.8281 5.10156L63.4219 9.42969C63.3229 10.6328 63.6562 11.2344 64.4219 11.2344C65.0104 11.2344 65.487 10.9427 65.8516 10.3594C66.2161 9.77604 66.4141 9.01562 66.4453 8.07812C66.5443 6.05208 66.1667 4.50781 65.3125 3.44531C64.4635 2.38281 63.1693 1.85156 61.4297 1.85156C60.3828 1.85156 59.4531 2.11198 58.6406 2.63281C57.8281 3.14844 57.1875 3.89583 56.7188 4.875C56.25 5.85417 55.987 6.98438 55.9297 8.26562C55.8672 9.55729 56.0234 10.6797 56.3984 11.6328C56.7734 12.5807 57.3438 13.3047 58.1094 13.8047C58.8802 14.3099 59.8099 14.5625 60.8984 14.5625C61.3672 14.5625 61.8359 14.5052 62.3047 14.3906C62.7786 14.276 63.1719 14.1276 63.4844 13.9453L63.7734 14.8438C63.4505 15.0469 63.0208 15.2135 62.4844 15.3438C61.9531 15.474 61.4141 15.5391 60.8672 15.5391C59.5651 15.5391 58.4453 15.2448 57.5078 14.6562C56.5703 14.0729 55.8672 13.2292 55.3984 12.125C54.9349 11.026 54.7344 9.73958 54.7969 8.26562C54.8594 6.83333 55.1797 5.54688 55.7578 4.40625C56.3359 3.26042 57.1198 2.3776 58.1094 1.75781C59.099 1.13281 60.2161 0.820312 61.4609 0.820312C62.7578 0.820312 63.8698 1.11198 64.7969 1.69531C65.724 2.27865 66.4141 3.11979 66.8672 4.21875C67.3203 5.31771 67.5156 6.60417 67.4531 8.07812ZM59.4375 8.74219C59.3646 9.48177 59.4323 10.0495 59.6406 10.4453C59.8542 10.8411 60.1901 11.0391 60.6484 11.0391C60.9609 11.0391 61.2604 10.9062 61.5469 10.6406C61.8385 10.375 62.0781 9.99479 62.2656 9.5L62.2734 9.42969L62.6328 5.5C62.3411 5.34896 62.0286 5.27344 61.6953 5.27344C61.0859 5.27344 60.5807 5.58333 60.1797 6.20312C59.7839 6.82292 59.5365 7.66927 59.4375 8.74219ZM70.7031 10.8203H75.6484V12H68.9375V10.9375L73.6016 4.74219H69.0078V3.54688H75.4141V4.57031L70.7031 10.8203ZM78.8516 12H77.4062V3.54688H78.8516V12ZM77.2891 1.30469C77.2891 1.07031 77.3594 0.872396 77.5 0.710938C77.6458 0.549479 77.8594 0.46875 78.1406 0.46875C78.4219 0.46875 78.6354 0.549479 78.7812 0.710938C78.9271 0.872396 79 1.07031 79 1.30469C79 1.53906 78.9271 1.73438 78.7812 1.89062C78.6354 2.04688 78.4219 2.125 78.1406 2.125C77.8594 2.125 77.6458 2.04688 77.5 1.89062C77.3594 1.73438 77.2891 1.53906 77.2891 1.30469ZM85.2578 4.84375C85.0391 4.80729 84.8021 4.78906 84.5469 4.78906C83.599 4.78906 82.9557 5.19271 82.6172 6V12H81.1719V3.54688H82.5781L82.6016 4.52344C83.0755 3.76823 83.7474 3.39062 84.6172 3.39062C84.8984 3.39062 85.112 3.42708 85.2578 3.5V4.84375ZM89.8281 10.9766C90.3438 10.9766 90.7943 10.8203 91.1797 10.5078C91.5651 10.1953 91.7786 9.80469 91.8203 9.33594H93.1875C93.1615 9.82031 92.9948 10.2812 92.6875 10.7188C92.3802 11.1562 91.9688 11.5052 91.4531 11.7656C90.9427 12.026 90.401 12.1562 89.8281 12.1562C88.6771 12.1562 87.7604 11.7734 87.0781 11.0078C86.401 10.237 86.0625 9.1849 86.0625 7.85156V7.60938C86.0625 6.78646 86.2135 6.05469 86.5156 5.41406C86.8177 4.77344 87.25 4.27604 87.8125 3.92188C88.3802 3.56771 89.0495 3.39062 89.8203 3.39062C90.7682 3.39062 91.5547 3.67448 92.1797 4.24219C92.8099 4.8099 93.1458 5.54688 93.1875 6.45312H91.8203C91.7786 5.90625 91.5703 5.45833 91.1953 5.10938C90.8255 4.75521 90.3672 4.57812 89.8203 4.57812C89.0859 4.57812 88.5156 4.84375 88.1094 5.375C87.7083 5.90104 87.5078 6.66406 87.5078 7.66406V7.9375C87.5078 8.91146 87.7083 9.66146 88.1094 10.1875C88.5104 10.7135 89.0833 10.9766 89.8281 10.9766ZM94.4297 7.69531C94.4297 6.86719 94.5911 6.1224 94.9141 5.46094C95.2422 4.79948 95.6953 4.28906 96.2734 3.92969C96.8568 3.57031 97.5208 3.39062 98.2656 3.39062C99.4167 3.39062 100.346 3.78906 101.055 4.58594C101.768 5.38281 102.125 6.44271 102.125 7.76562V7.86719C102.125 8.6901 101.966 9.42969 101.648 10.0859C101.336 10.737 100.885 11.2448 100.297 11.6094C99.7135 11.974 99.0417 12.1562 98.2812 12.1562C97.1354 12.1562 96.2057 11.7578 95.4922 10.9609C94.7839 10.1641 94.4297 9.10938 94.4297 7.79688V7.69531ZM95.8828 7.86719C95.8828 8.80469 96.099 9.55729 96.5312 10.125C96.9688 10.6927 97.5521 10.9766 98.2812 10.9766C99.0156 10.9766 99.599 10.6901 100.031 10.1172C100.464 9.53906 100.68 8.73177 100.68 7.69531C100.68 6.76823 100.458 6.01823 100.016 5.44531C99.5781 4.86719 98.9948 4.57812 98.2656 4.57812C97.5521 4.57812 96.9766 4.86198 96.5391 5.42969C96.1016 5.9974 95.8828 6.8099 95.8828 7.86719ZM105.305 3.54688L105.352 4.60938C105.997 3.79688 106.841 3.39062 107.883 3.39062C109.669 3.39062 110.57 4.39844 110.586 6.41406V12H109.141V6.40625C109.135 5.79688 108.995 5.34635 108.719 5.05469C108.448 4.76302 108.023 4.61719 107.445 4.61719C106.977 4.61719 106.565 4.74219 106.211 4.99219C105.857 5.24219 105.581 5.57031 105.383 5.97656V12H103.938V3.54688H105.305ZM112.797 11.2422C112.797 10.9922 112.87 10.7839 113.016 10.6172C113.167 10.4505 113.391 10.3672 113.688 10.3672C113.984 10.3672 114.208 10.4505 114.359 10.6172C114.516 10.7839 114.594 10.9922 114.594 11.2422C114.594 11.4818 114.516 11.6823 114.359 11.8438C114.208 12.0052 113.984 12.0859 113.688 12.0859C113.391 12.0859 113.167 12.0052 113.016 11.8438C112.87 11.6823 112.797 11.4818 112.797 11.2422ZM118.945 1.5V3.54688H120.523V4.66406H118.945V9.90625C118.945 10.2448 119.016 10.5 119.156 10.6719C119.297 10.8385 119.536 10.9219 119.875 10.9219C120.042 10.9219 120.271 10.8906 120.562 10.8281V12C120.182 12.1042 119.812 12.1562 119.453 12.1562C118.807 12.1562 118.32 11.9609 117.992 11.5703C117.664 11.1797 117.5 10.625 117.5 9.90625V4.66406H115.961V3.54688H117.5V1.5H118.945ZM125.727 12.1562C124.581 12.1562 123.648 11.7812 122.93 11.0312C122.211 10.276 121.852 9.26823 121.852 8.00781V7.74219C121.852 6.90365 122.01 6.15625 122.328 5.5C122.651 4.83854 123.099 4.32292 123.672 3.95312C124.25 3.57812 124.875 3.39062 125.547 3.39062C126.646 3.39062 127.5 3.7526 128.109 4.47656C128.719 5.20052 129.023 6.23698 129.023 7.58594V8.1875H123.297C123.318 9.02083 123.56 9.69531 124.023 10.2109C124.492 10.7214 125.086 10.9766 125.805 10.9766C126.315 10.9766 126.747 10.8724 127.102 10.6641C127.456 10.4557 127.766 10.1797 128.031 9.83594L128.914 10.5234C128.206 11.612 127.143 12.1562 125.727 12.1562ZM125.547 4.57812C124.964 4.57812 124.474 4.79167 124.078 5.21875C123.682 5.64062 123.438 6.23438 123.344 7H127.578V6.89062C127.536 6.15625 127.339 5.58854 126.984 5.1875C126.63 4.78125 126.151 4.57812 125.547 4.57812ZM134.094 10.9766C134.609 10.9766 135.06 10.8203 135.445 10.5078C135.831 10.1953 136.044 9.80469 136.086 9.33594H137.453C137.427 9.82031 137.26 10.2812 136.953 10.7188C136.646 11.1562 136.234 11.5052 135.719 11.7656C135.208 12.026 134.667 12.1562 134.094 12.1562C132.943 12.1562 132.026 11.7734 131.344 11.0078C130.667 10.237 130.328 9.1849 130.328 7.85156V7.60938C130.328 6.78646 130.479 6.05469 130.781 5.41406C131.083 4.77344 131.516 4.27604 132.078 3.92188C132.646 3.56771 133.315 3.39062 134.086 3.39062C135.034 3.39062 135.82 3.67448 136.445 4.24219C137.076 4.8099 137.411 5.54688 137.453 6.45312H136.086C136.044 5.90625 135.836 5.45833 135.461 5.10938C135.091 4.75521 134.633 4.57812 134.086 4.57812C133.352 4.57812 132.781 4.84375 132.375 5.375C131.974 5.90104 131.773 6.66406 131.773 7.66406V7.9375C131.773 8.91146 131.974 9.66146 132.375 10.1875C132.776 10.7135 133.349 10.9766 134.094 10.9766ZM140.523 4.57031C141.164 3.78385 141.997 3.39062 143.023 3.39062C144.81 3.39062 145.711 4.39844 145.727 6.41406V12H144.281V6.40625C144.276 5.79688 144.135 5.34635 143.859 5.05469C143.589 4.76302 143.164 4.61719 142.586 4.61719C142.117 4.61719 141.706 4.74219 141.352 4.99219C140.997 5.24219 140.721 5.57031 140.523 5.97656V12H139.078V0H140.523V4.57031Z" fill="#868686"/>
</svg>
